<svg id="icon" height="512" viewBox="0 0 340 340" width="512" xmlns="http://www.w3.org/2000/svg"><path d="m169.522 283.717c6.132-71.921 9.628-139.643 0-186.438 0 0-75.543-38.014-153.33-2.724a9.811 9.811 0 0 0 -5.714 8.949v180.213z" fill="#a5b4db"/><path d="m169.522 283.717c4.806-78.156 9.409-159.968 16.7-193.06 26.728-9.033 81.8-21.394 137.584 3.9a9.812 9.812 0 0 1 5.715 8.95v180.21z" fill="#f5fbff"/><path d="m186.223 90.658a147.159 147.159 0 0 0 -16.7 6.621v186.438h16.7z" fill="#a5b4db"/><path d="m160.691 279.908c-22.8-8.929-86.357-28.133-150.213 3.809v29.533c72.871-20.689 129.92-8.668 150.624-2.724a30.692 30.692 0 0 0 16.858.026c20.877-5.935 78.585-18.021 151.562 2.7v-29.535c-63.934-31.981-128.178-12.691-151.154-3.777a24.327 24.327 0 0 1 -17.677-.032z" fill="#626da0"/><path d="m158.4 268.414c-15.579-18.268-48.416-47.346-104.038-55.229a11.12 11.12 0 0 1 -9.607-10.985v-167.178a8.262 8.262 0 0 1 9.206-8.214c86 10.117 115.561 70.471 115.561 70.471v167.013a6.321 6.321 0 0 1 -11.122 4.122z" fill="#f5fbff"/><g fill="#a5b4db"><path d="m80.992 166.033a83.521 83.521 0 0 1 22.8 11.031v-27.149a81.236 81.236 0 0 0 -22.8-11.162z"/><path d="m80.219 67.1c1.088.246 3.838.911 4.134.911a3.5 3.5 0 0 0 .89-6.885q-1.726-.456-3.478-.853a3.5 3.5 0 0 0 -1.546 6.827z"/><path d="m104.236 75.755c22.528 9.994 38.595 27.354 38.754 27.528a4.129 4.129 0 0 0 4.945.217 3.411 3.411 0 0 0 .219-4.943c-.689-.754-17.169-18.594-41.079-29.2a3.5 3.5 0 1 0 -2.839 6.4z"/><path d="m80.219 92.952c35.23 7.981 62.544 35.987 62.833 36.251a3.444 3.444 0 0 0 4.948.09 3.6 3.6 0 0 0 .092-4.947c-1.166-1.212-29.009-29.767-66.326-38.221a3.5 3.5 0 1 0 -1.547 6.827z"/><path d="m80.219 118.807c35.23 7.981 62.561 35.969 62.833 36.251a3.99 3.99 0 0 0 4.948.09 3.419 3.419 0 0 0 .092-4.947c-1.166-1.212-29.009-29.767-66.326-38.221a3.5 3.5 0 1 0 -1.547 6.827z"/><path d="m122.73 155.814a3.5 3.5 0 0 0 -3.4 6.118c12.46 6.929 23.568 18.813 23.678 18.932.69.743 3.26 1.675 4.946.184a3.469 3.469 0 0 0 .186-4.944c-.484-.52-11.956-12.809-25.41-20.29z"/><path d="m147.952 206.9a3.487 3.487 0 0 0 .186-4.944c-.482-.52-11.954-12.809-25.409-20.29a3.5 3.5 0 0 0 -3.4 6.118c12.46 6.928 23.568 18.813 23.678 18.932.693.746 3.308 1.684 4.945.184z"/></g><path d="m281.449 104.762h15.4a0 0 0 0 1 0 0v53.047a7.7 7.7 0 0 1 -7.7 7.7 7.7 7.7 0 0 1 -7.7-7.7v-53.047a0 0 0 0 1 0 0z" fill="#a05858" transform="matrix(.757 -.653 .653 .757 -18.071 221.648)"/><path d="m217.337 79.812h84.514v42.11h-84.514z" fill="#e28683" transform="matrix(.757 -.653 .653 .757 -2.864 194.027)"/><rect fill="#a05858" height="58.279" rx="7.961" transform="matrix(-.757 .653 -.653 -.757 560.26 -61.69)" width="15.922" x="283.633" y="44.129"/><rect fill="#a05858" height="58.279" rx="7.961" transform="matrix(.757 -.653 .653 .757 -28.656 179.827)" width="15.922" x="219.634" y="99.325"/><path d="m265.218 186.007h-41.964a8.482 8.482 0 0 0 -8.482 8.482v5.811a185.383 185.383 0 0 0 58.929 0v-5.812a8.482 8.482 0 0 0 -8.483-8.481z" fill="#e28683"/><path d="m210.962 200.3h66.548a9.5 9.5 0 0 1 9.5 9.5v6.665a0 0 0 0 1 0 0h-85.549a0 0 0 0 1 0 0v-6.665a9.5 9.5 0 0 1 9.501-9.5z" fill="#a05858"/></svg>