<svg xmlns="http://www.w3.org/2000/svg" version="1.1" xmlns:xlink="http://www.w3.org/1999/xlink" width="512" height="512" x="0" y="0" viewBox="0 0 512 512" style="enable-background:new 0 0 512 512" xml:space="preserve" class=""><g><path d="M407.526 97.103v361.931c-.029 9.739-7.916 17.627-17.655 17.655H51.509a17.655 17.655 0 0 1-17.655-17.655V17.655A17.65 17.65 0 0 1 51.509 0h258.913l97.104 97.103z" style="" fill="#ffae1f" data-original="#cbb292" opacity="1" class=""></path><path d="M407.526 97.103h-79.448c-9.739-.029-17.627-7.916-17.655-17.655V0l97.103 97.103z" style="" fill="#3a7c3f" data-original="#7f6e5d" class="" opacity="1"></path><path d="M98.56 61.793h17.655c9.751 0 17.655 7.904 17.655 17.655v17.655c0 9.751-7.904 17.655-17.655 17.655H98.56c-9.751 0-17.655-7.904-17.655-17.655V79.448c0-9.75 7.904-17.655 17.655-17.655z" style="" fill="#ecf0f1" data-original="#ecf0f1" class=""></path><path d="M186.836 61.793h70.621c9.751 0 17.655 7.904 17.655 17.655 0 9.751-7.904 17.655-17.655 17.655h-70.621c-9.751 0-17.655-7.904-17.655-17.655 0-9.75 7.904-17.655 17.655-17.655z" style="" fill="#27cdc3" data-original="#5e5f62" class="" opacity="1"></path><path d="M98.56 150.069h17.655c9.751 0 17.655 7.904 17.655 17.655v17.655c0 9.751-7.904 17.655-17.655 17.655H98.56c-9.751 0-17.655-7.904-17.655-17.655v-17.655c0-9.751 7.904-17.655 17.655-17.655z" style="" fill="#ecf0f1" data-original="#ecf0f1" class=""></path><path d="M186.836 150.069H354.56c9.751 0 17.655 7.904 17.655 17.655 0 9.751-7.905 17.655-17.655 17.655H186.836c-9.751 0-17.655-7.904-17.655-17.655 0-9.751 7.904-17.655 17.655-17.655z" style="" fill="#27cdc3" data-original="#5e5f62" class="" opacity="1"></path><path d="M98.56 238.345h17.655c9.751 0 17.655 7.904 17.655 17.655v17.655c0 9.751-7.904 17.655-17.655 17.655H98.56c-9.751 0-17.655-7.904-17.655-17.655V256c0-9.751 7.904-17.655 17.655-17.655z" style="" fill="#ecf0f1" data-original="#ecf0f1" class=""></path><path d="M287.647 238.345H186.836c-9.722.07-17.585 7.934-17.655 17.655.029 9.739 7.916 17.627 17.655 17.655h47.492" style="" fill="#27cdc3" data-original="#5e5f62" class="" opacity="1"></path><path d="M98.56 326.621h17.655c9.751 0 17.655 7.904 17.655 17.655v17.655c0 9.751-7.904 17.655-17.655 17.655H98.56c-9.751 0-17.655-7.905-17.655-17.655v-17.655c0-9.751 7.904-17.655 17.655-17.655z" style="" fill="#ecf0f1" data-original="#ecf0f1" class=""></path><path d="M202.726 326.621h-15.89c-9.722.07-17.585 7.934-17.655 17.655.029 9.739 7.916 17.627 17.655 17.655h9.092" style="" fill="#27cdc3" data-original="#5e5f62" class="" opacity="1"></path><circle cx="336.905" cy="370.759" r="141.241" style="" fill="#d25627" data-original="#d25627" class=""></circle><circle cx="336.905" cy="370.759" r="105.931" style="" fill="#ecf0f1" data-original="#ecf0f1" class=""></circle><path d="M381.043 423.724a8.797 8.797 0 0 1-6.241-2.586L330.664 377a8.823 8.823 0 0 1-2.586-6.241v-70.621a8.828 8.828 0 0 1 17.656 0v66.966l41.551 41.551a8.828 8.828 0 0 1-6.242 15.069z" style="" fill="#27cdc3" data-original="#5e5f62" class="" opacity="1"></path></g></svg>