<svg xmlns="http://www.w3.org/2000/svg" version="1.1" xmlns:xlink="http://www.w3.org/1999/xlink" width="512" height="512" x="0" y="0" viewBox="0 0 512 512" style="enable-background:new 0 0 512 512" xml:space="preserve" class=""><g><path fill="#04c27a" d="M445.315 0H117.25a5.15 5.15 0 0 0-5.151 5.151v432.867l1.367 1h69.726a9.302 9.302 0 0 1 9.302 9.302v21.524h8.848a9.302 9.302 0 0 1 9.302 9.302V511l1 1h233.671a5.15 5.15 0 0 0 5.15-5.15V5.15a5.15 5.15 0 0 0-5.15-5.15z" opacity="1" data-original="#fff3de" class=""></path><g fill="#ffe5c2"><path d="M145.882 147.963c.308 0 .613.012.919.023V5.151A5.15 5.15 0 0 1 151.952 0H117.25a5.15 5.15 0 0 0-5.151 5.151v142.812zM145.882 395.743h-33.783v42.275h34.702V395.72c-.306.011-.611.023-.919.023z" fill="#3a7c3f" opacity="1" data-original="#ffe5c2" class=""></path></g><g fill="#883f2e"><path d="M155.378 254.239h49.686v35.229h-49.686zM235.944 254.239h70.109v35.229h-70.109z" fill="#883f2e" opacity="1" data-original="#883f2e" class=""></path></g><g fill="#6d3326"><path d="M155.378 272.483h49.686v16.985h-49.686zM235.944 272.483h70.109v16.985h-70.109z" fill="#6d3326" opacity="1" data-original="#6d3326" class=""></path></g><path fill="#ca6e59" d="M496.467 271.853c0 14.268-11.567 25.835-25.835 25.835H310.926a5.872 5.872 0 0 1-5.872-5.872V251.89a5.872 5.872 0 0 1 5.872-5.872h159.706c14.268 0 25.835 11.567 25.835 25.835z" opacity="1" data-original="#ca6e59" class=""></path><path fill="#bb5d4c" d="M340.165 275.573a5.871 5.871 0 0 1-5.871-5.872v-23.684h-23.368a5.872 5.872 0 0 0-5.872 5.872v39.927a5.872 5.872 0 0 0 5.872 5.872h159.706c13.004 0 23.76-9.61 25.564-22.115z" opacity="1" data-original="#bb5d4c" class=""></path><path fill="#ca6e59" d="M236.944 251.169v41.368a5.15 5.15 0 0 1-5.151 5.151h-22.579a5.15 5.15 0 0 1-5.151-5.151v-41.368a5.15 5.15 0 0 1 5.151-5.151h22.579a5.15 5.15 0 0 1 5.151 5.151z" opacity="1" data-original="#ca6e59" class=""></path><path fill="#bb5d4c" d="M218.998 292.537v-41.368a5.15 5.15 0 0 1 5.151-5.151h-14.935a5.15 5.15 0 0 0-5.151 5.151v41.368a5.15 5.15 0 0 0 5.151 5.151h14.935a5.151 5.151 0 0 1-5.151-5.151z" opacity="1" data-original="#bb5d4c" class=""></path><path fill="#883f2e" d="M146.076 313.128H81.101a9.196 9.196 0 0 1-1.567-.143v33.333a24.473 24.473 0 0 1 1.762-.071h64.587c.593 0 1.179.029 1.761.071v-33.333a9.217 9.217 0 0 1-1.568.143z" opacity="1" data-original="#883f2e" class=""></path><path fill="#6d3326" d="M81.101 313.128a9.196 9.196 0 0 1-1.567-.143v33.333a24.473 24.473 0 0 1 1.762-.071h24.18v-33.119z" opacity="1" data-original="#6d3326" class=""></path><path fill="#883f2e" d="M81.101 230.578h64.976c.535 0 1.057.055 1.567.143v-33.333c-.583.042-1.168.071-1.761.071H81.295c-.593 0-1.179-.029-1.762-.071v33.333a9.31 9.31 0 0 1 1.568-.143z" opacity="1" data-original="#883f2e" class=""></path><path fill="#6d3326" d="M81.101 230.578h24.375v-33.12h-24.18c-.593 0-1.179-.029-1.762-.071v33.333a9.394 9.394 0 0 1 1.567-.142z" opacity="1" data-original="#6d3326" class=""></path><path fill="#ca6e59" d="M156.378 239.88v63.947c0 5.69-4.612 10.302-10.302 10.302H81.101c-5.69 0-10.302-4.612-10.302-10.302V239.88c0-5.69 4.612-10.302 10.302-10.302h64.975c5.689 0 10.302 4.612 10.302 10.302z" opacity="1" data-original="#ca6e59" class=""></path><path fill="#bb5d4c" d="M105.594 303.827V239.88c0-5.69 4.612-10.302 10.302-10.302H81.101c-5.69 0-10.302 4.612-10.302 10.302v63.947c0 5.69 4.612 10.302 10.302 10.302h34.795c-5.69-.001-10.302-4.613-10.302-10.302z" opacity="1" data-original="#bb5d4c" class=""></path><path fill="#ca6e59" d="M193.494 469.844V448.32c0-5.69-4.612-10.302-10.302-10.302H43.984c-5.69 0-10.302 4.612-10.302 10.302v21.524z" opacity="1" data-original="#ca6e59" class=""></path><path fill="#bb5d4c" d="M68.559 469.844c-.033-.338-.052-.68-.052-1.027V448.32c0-5.69 4.612-10.302 10.302-10.302H43.984c-5.69 0-10.302 4.612-10.302 10.302v21.524z" opacity="1" data-original="#bb5d4c" class=""></path><path fill="#883f2e" d="M211.643 512H20.684a5.15 5.15 0 0 1-5.151-5.151v-27.703c0-5.69 4.612-10.302 10.302-10.302h175.506c5.69 0 10.302 4.612 10.302 10.302z" opacity="1" data-original="#883f2e" class=""></path><path fill="#6d3326" d="M49.964 506.849v-27.703c0-5.69 4.612-10.302 10.302-10.302H25.835c-5.69 0-10.302 4.612-10.302 10.302v27.703A5.15 5.15 0 0 0 20.684 512h34.431a5.15 5.15 0 0 1-5.151-5.151z" opacity="1" data-original="#6d3326" class=""></path><path fill="#ca6e59" d="M171.13 370.495c0 13.944-11.304 25.248-25.248 25.248H81.295c-13.944 0-25.248-11.304-25.248-25.248s11.304-25.248 25.248-25.248h64.587c13.944.001 25.248 11.304 25.248 25.248z" opacity="1" data-original="#ca6e59" class=""></path><path fill="#bb5d4c" d="M90.439 370.495c0-13.944 11.304-25.248 25.248-25.248H81.295c-13.944 0-25.248 11.304-25.248 25.248s11.304 25.248 25.248 25.248h34.392c-13.945 0-25.248-11.304-25.248-25.248z" opacity="1" data-original="#bb5d4c" class=""></path><path fill="#ca6e59" d="M171.13 173.211c0 13.944-11.304 25.248-25.248 25.248H81.295c-13.944 0-25.248-11.304-25.248-25.248s11.304-25.248 25.248-25.248h64.587c13.944 0 25.248 11.304 25.248 25.248z" opacity="1" data-original="#ca6e59" class=""></path><path fill="#bb5d4c" d="M90.439 173.211c0-13.944 11.304-25.248 25.248-25.248H81.295c-13.944 0-25.248 11.304-25.248 25.248s11.304 25.248 25.248 25.248h34.392c-13.945 0-25.248-11.304-25.248-25.248z" opacity="1" data-original="#bb5d4c" class=""></path><circle cx="281.282" cy="120.3" r="72.287" fill="#27cdc3" opacity="1" data-original="#4fc123" class=""></circle><path fill="#27cdc3" d="M243.638 120.3c0-33.95 23.41-62.42 54.966-70.183a72.394 72.394 0 0 0-17.322-2.104c-39.923 0-72.287 32.364-72.287 72.287s32.364 72.287 72.287 72.287a72.4 72.4 0 0 0 17.322-2.104c-31.556-7.763-54.966-36.232-54.966-70.183z" opacity="1" data-original="#47a920" class=""></path><path fill="#ffc2d6" d="M281.281 200.087c-43.994 0-79.786-35.792-79.786-79.787s35.792-79.787 79.786-79.787c43.995 0 79.787 35.792 79.787 79.787s-35.792 79.787-79.787 79.787zm0-144.574c-35.724 0-64.786 29.063-64.786 64.787s29.063 64.787 64.786 64.787 64.787-29.063 64.787-64.787-29.063-64.787-64.787-64.787z" opacity="1" data-original="#68ca44" class=""></path><path fill="#3a7c3f" d="M277.544 148.55a7.476 7.476 0 0 1-5.304-2.197l-23.766-23.766a7.5 7.5 0 0 1 10.607-10.606l18.462 18.462 31.534-31.534a7.5 7.5 0 0 1 10.607 0 7.5 7.5 0 0 1 0 10.606l-36.838 36.837a7.467 7.467 0 0 1-5.302 2.198z" opacity="1" data-original="#ffffff" class=""></path><path fill="#f6a96c" d="M393.127 344.44H251.035c-4.143 0-7.5-3.358-7.5-7.5s3.357-7.5 7.5-7.5h142.092c4.143 0 7.5 3.358 7.5 7.5s-3.357 7.5-7.5 7.5zM393.127 382.018h-73.256c-4.143 0-7.5-3.358-7.5-7.5s3.357-7.5 7.5-7.5h73.256c4.143 0 7.5 3.358 7.5 7.5s-3.357 7.5-7.5 7.5zM293.087 382.018h-42.052c-4.143 0-7.5-3.358-7.5-7.5s3.357-7.5 7.5-7.5h42.052a7.5 7.5 0 0 1 0 15zM393.127 419.596H251.035c-4.143 0-7.5-3.358-7.5-7.5s3.357-7.5 7.5-7.5h142.092c4.143 0 7.5 3.358 7.5 7.5s-3.357 7.5-7.5 7.5zM393.127 457.174h-37.199c-4.143 0-7.5-3.358-7.5-7.5s3.357-7.5 7.5-7.5h37.199c4.143 0 7.5 3.358 7.5 7.5s-3.357 7.5-7.5 7.5zM332.233 457.174h-81.198c-4.143 0-7.5-3.358-7.5-7.5s3.357-7.5 7.5-7.5h81.198c4.143 0 7.5 3.358 7.5 7.5s-3.357 7.5-7.5 7.5z" opacity="1" data-original="#f6a96c" class=""></path></g></svg>