<svg xmlns="http://www.w3.org/2000/svg" version="1.1" xmlns:xlink="http://www.w3.org/1999/xlink" width="512" height="512" x="0" y="0" viewBox="0 0 512 512" style="enable-background:new 0 0 512 512" xml:space="preserve" class=""><g><path fill-rule="evenodd" d="M26.75 332.68V177.66c0-3.31-2.69-6-6-6s-6 2.69-6 6v161.02c0 3.31 2.69 6 6 6h15.96v82.99c0 3.31 2.69 6 6 6s6-2.69 6-6v-82.99h50.54v82.99c0 3.31 2.69 6 6 6s6-2.69 6-6v-82.99h15.96c3.31 0 6-2.69 6-6s-2.69-6-6-6zm98.15-216.41c0-20.92-17.02-37.94-37.94-37.94s-37.94 17.02-37.94 37.94 17.02 37.94 37.94 37.94 37.94-17.02 37.94-37.94zm299.64 37.94c20.92 0 37.94-17.02 37.94-37.94s-17.02-37.94-37.94-37.94-37.94 17.02-37.94 37.94 17.02 37.94 37.94 37.94zm60.21 178.47H384.29c-3.31 0-6 2.69-6 6s2.69 6 6 6h15.96v82.99c0 3.31 2.69 6 6 6s6-2.69 6-6v-82.99h50.54v82.99c0 3.31 2.69 6 6 6s6-2.69 6-6v-82.99h15.96c3.31 0 6-2.69 6-6V177.66c0-3.31-2.69-6-6-6s-6 2.69-6 6zM259.01 168.63a5.985 5.985 0 0 1 4.24-7.34 6 6 0 0 1 7.35 4.24l17.37 64.82h31.46c-5.21-3.29-8.68-9.08-8.68-15.69 0-10.23 8.32-18.56 18.56-18.56h50.29l30.19-26.61.03-.03c6.56-5.99 15.03-9.29 23.87-9.29 19.54 0 35.44 15.9 35.44 35.44v91.49c0 19.54-15.9 35.44-35.44 35.44h-70.84v84.5c0 11.01-8.96 19.97-19.97 19.97h-36.11c-11.02 0-19.98-8.96-19.98-19.97 0-11.02 8.96-19.98 19.98-19.98h13.96v-87.48c0-12.67 10.3-22.97 22.96-22.97h54.55v-47.73l-3.12 2.81a5.99 5.99 0 0 1-4.01 1.53h-20.79c.56.91.88 1.98.88 3.13 0 3.31-2.68 6-6 6h-81.84c-2.71 0-5.09-1.83-5.79-4.45zM146.3 242.35c-3.32 0-6-2.69-6-6 0-1.15.32-2.22.88-3.13h-20.79a5.99 5.99 0 0 1-4.01-1.53l-3.12-2.81v47.73h54.55c12.66 0 22.96 10.3 22.96 22.97v87.48h13.96c11.02 0 19.98 8.96 19.98 19.98 0 11.01-8.96 19.97-19.98 19.97h-35.38c-11.02 0-19.98-8.96-19.98-19.97v-84.5H77.81c-19.54 0-35.44-15.9-35.44-35.44v-91.49c0-19.54 15.9-35.44 35.44-35.44 8.84 0 17.31 3.3 23.87 9.29l.03.03 30.19 26.61h50.29c10.24 0 18.56 8.33 18.56 18.56 0 6.61-3.47 12.4-8.68 15.69h31.46l17.37-64.82c.86-3.2 4.15-5.09 7.35-4.24s5.1 4.14 4.24 7.34l-18.56 69.27a6.002 6.002 0 0 1-5.79 4.45zm-5.67 10.64c0 3.31 2.69 6 6 6h103.12v162.02c0 3.31 2.69 6 6 6s6-2.69 6-6V258.99h103.12c3.31 0 6-2.69 6-6s-2.69-6-6-6H146.63c-3.31 0-6 2.69-6 6z" clip-rule="evenodd" fill="#5d87ff" opacity="1" data-original="#000000" class=""></path></g></svg>