<svg xmlns="http://www.w3.org/2000/svg" version="1.1" xmlns:xlink="http://www.w3.org/1999/xlink" width="512" height="512" x="0" y="0" viewBox="0 0 64 64" style="enable-background:new 0 0 512 512" xml:space="preserve" class=""><g><g data-name="Layer 2"><path fill="#2c9ee6" d="M5 25h54v34H5z" opacity="1" data-original="#e6e6e6" class=""></path><g fill="#cecece"><path d="M15 25h4v34h-4z" fill="#2c9ee6" opacity="1" data-original="#cecece" class=""></path><path d="M13 25h8v2a2 2 0 0 1-2 2h-4a2 2 0 0 1-2-2v-2zM39 25h8v2a2 2 0 0 1-2 2h-4a2 2 0 0 1-2-2v-2zM51 25h8v2a2 2 0 0 1-2 2h-4a2 2 0 0 1-2-2v-2z" fill="#2c9ee6" opacity="1" data-original="#cecece" class=""></path><path d="M41 25h4v34h-4zM53 25h4v34h-4z" fill="#2c9ee6" opacity="1" data-original="#cecece" class=""></path><path d="M8 26v-1H5v34h54v-3H38A30 30 0 0 1 8 26z" fill="#2c9ee6" opacity="1" data-original="#cecece" class=""></path></g><path fill="#2c9ee6" d="M3 21h58v4H3z" opacity="1" data-original="#e6e6e6" class=""></path><path fill="#2c9ee6" d="M3 21h3v4H3z" opacity="1" data-original="#cecece" class=""></path><path fill="#7a838b" d="M3 59h58a2 2 0 0 1 2 2v2H1v-2a2 2 0 0 1 2-2z" opacity="1" data-original="#7a838b" class=""></path><path fill="#5d6972" d="M6 59H3a2 2 0 0 0-2 2v2h3v-2a2 2 0 0 1 2-2z" opacity="1" data-original="#5d6972"></path><rect width="62" height="4" x="1" y="17" fill="#7a838b" rx="2" opacity="1" data-original="#7a838b" class=""></rect><path fill="#5d6972" d="M4 19a2 2 0 0 1 2-2H3a2 2 0 0 0 0 4h3a2 2 0 0 1-2-2z" opacity="1" data-original="#5d6972"></path><path fill="#7a838b" d="M3 17 32 1l29 16z" opacity="1" data-original="#7a838b" class=""></path><path fill="#5d6972" d="M32 1 3 17h5L34.5 2.379z" opacity="1" data-original="#5d6972"></path><path fill="#2c9ee6" d="M11 17 32 6l21 11z" opacity="1" data-original="#e6e6e6" class=""></path><g fill="#7a838b"><path d="M3 25h8v2a2 2 0 0 1-2 2H5a2 2 0 0 1-2-2v-2zM5 29h4v26H5zM5 55h4a2 2 0 0 1 2 2v2H3v-2a2 2 0 0 1 2-2z" fill="#7a838b" opacity="1" data-original="#7a838b" class=""></path></g><path fill="#5d6972" d="M8 55H5a2 2 0 0 0-2 2v2h3v-2a2 2 0 0 1 2-2zM8 28.736H5a2 2 0 0 1-2-2v-2h3v2a2 2 0 0 0 2 2z" opacity="1" data-original="#5d6972"></path><path fill="#7a838b" d="M15 25h8v2a2 2 0 0 1-2 2h-4a2 2 0 0 1-2-2v-2z" opacity="1" data-original="#7a838b" class=""></path><path fill="#5d6972" d="M20 29h-3a2 2 0 0 1-2-2v-2h3v2a2 2 0 0 0 2 2z" opacity="1" data-original="#5d6972"></path><path fill="#7a838b" d="M17 29h4v26h-4zM17 55h4a2 2 0 0 1 2 2v2h-8v-2a2 2 0 0 1 2-2z" opacity="1" data-original="#7a838b" class=""></path><path fill="#5d6972" d="M20 55h-3a2 2 0 0 0-2 2v2h3v-2a2 2 0 0 1 2-2z" opacity="1" data-original="#5d6972"></path><g fill="#7a838b"><path d="M59 29h-4a2 2 0 0 1-2-2v-2h8v2a2 2 0 0 1-2 2zM59 55h-4V29h4zM61 59h-8v-2a2 2 0 0 1 2-2h4a2 2 0 0 1 2 2v2zM47 29h-4a2 2 0 0 1-2-2v-2h8v2a2 2 0 0 1-2 2z" fill="#7a838b" opacity="1" data-original="#7a838b" class=""></path></g><path fill="#5d6972" d="M46 29h-3a2 2 0 0 1-2-2v-2h3v2a2 2 0 0 0 2 2zM58 29h-3a2 2 0 0 1-2-2v-2h3v2a2 2 0 0 0 2 2z" opacity="1" data-original="#5d6972"></path><path fill="#7a838b" d="M47 55h-4V29h4zM49 59h-8v-2a2 2 0 0 1 2-2h4a2 2 0 0 1 2 2v2z" opacity="1" data-original="#7a838b" class=""></path><path fill="#5d6972" d="M46 55h-3a2 2 0 0 0-2 2v2h3v-2a2 2 0 0 1 2-2zM58 55h-3a2 2 0 0 0-2 2v2h3v-2a2 2 0 0 1 2-2z" opacity="1" data-original="#5d6972"></path><path fill="#27cdc3" d="M26 37h12v22H26z" opacity="1" data-original="#a7d0e1" class=""></path><path fill="#27cdc3" d="M26 37v3h5a4 4 0 0 1 4 4v15h3V37z" opacity="1" data-original="#80bbce" class=""></path><rect width="16" height="4" x="24" y="33" fill="#7a838b" rx="2" opacity="1" data-original="#7a838b" class=""></rect><path fill="#5d6972" d="M27 35a2 2 0 0 1 2-2h-3a2 2 0 0 0 0 4h3a2 2 0 0 1-2-2z" opacity="1" data-original="#5d6972"></path><path fill="#2c9ee6" d="M61 20h-2a1 1 0 0 1 0-2h2a1 1 0 0 1 0 2z" opacity="1" data-original="#ffffff" class=""></path></g></g></svg>