<svg xmlns="http://www.w3.org/2000/svg" version="1.1" xmlns:xlink="http://www.w3.org/1999/xlink" width="512" height="512" x="0" y="0" viewBox="0 0 16.933 16.933" style="enable-background:new 0 0 512 512" xml:space="preserve" class=""><g><path fill="#fd4755" d="m14.839 11.535-1.059 2.38.485.216.816-1.836.817 1.836.484-.215-1.059-2.381zM12.7 16.135v-5.82c0-.353.53-.353.53 0v5.82z" opacity="1" data-original="#e8ab3c" class=""></path><path fill="#33658a" d="M8.731 8.996a3.437 3.437 0 0 1 3.44 3.44v3.702a.265.265 0 0 1-.266.266H.794a.265.265 0 0 1-.266-.266v-3.703a3.437 3.437 0 0 1 3.44-3.439zM6.35.529a3.18 3.18 0 0 0-3.175 3.176c0 .443.073.916.197 1.388h5.957c.124-.472.195-.945.195-1.388A3.179 3.179 0 0 0 6.351.529z" opacity="1" data-original="#33658a" class=""></path><path fill="#c8d4d9" d="m6.35 10.054-1.852 1.323 1.852 4.498 1.852-4.498z" opacity="1" data-original="#c8d4d9" class=""></path><path fill="#fd4755" d="m5.86 11.113-.55 3.306 1.04 1.456 1.04-1.456-.551-3.306z" opacity="1" data-original="#ff6b6b" class=""></path><path fill="#fdce97" d="M4.762 7.144v2.91h3.174v-2.91z" opacity="1" data-original="#fdce97" class=""></path><path fill="#3a7c3f" d="M5.41 10.363s-.154.246-.073.367l.527.793c.05.074.132.12.22.12h.53c.09 0 .172-.046.221-.12l.53-.793c.08-.122-.075-.367-.075-.367z" opacity="1" data-original="#e86262" class=""></path><path fill="#dce9ed" d="M4.76 8.466a.265.265 0 0 0-.185.079l-.529.529.605 2.517 1.852-1.322c.14-.1.148-.307.016-.418L4.933 8.527a.264.264 0 0 0-.172-.06z" opacity="1" data-original="#dce9ed" class=""></path><path fill="#2f5c7e" d="M2.382 16.404v-2.386c0-.353.53-.353.53 0v2.386z" opacity="1" data-original="#2f5c7e" class=""></path><path fill="#dce9ed" d="M7.933 8.466a.264.264 0 0 0-.164.061L6.18 9.851a.265.265 0 0 0 .015.418l1.852 1.322.605-2.517-.529-.53a.265.265 0 0 0-.191-.078z" opacity="1" data-original="#dce9ed" class=""></path><path fill="#fdce97" d="M8.912 4.759a.837.837 0 0 0-.445.153v1.966c.656 0 1.323-.508 1.323-1.322v-.01c-.013-.39-.304-.676-.627-.761a.842.842 0 0 0-.251-.027z" opacity="1" data-original="#fdce97" class=""></path><path fill="#2f5c7e" d="M3.969 8.995c-.318 0-.625.043-.918.123a.265.265 0 0 0-.19.21l-.211 1.21a.265.265 0 0 0 .073.232l.688.688-.228.913a.265.265 0 0 0 .048.227l2.91 3.705a.265.265 0 0 0 .462-.242L4.486 9.182a.265.265 0 0 0-.253-.187zM10.317 16.404v-2.386c0-.353-.53-.353-.53 0v2.386z" opacity="1" data-original="#2f5c7e" class=""></path><path fill="#fd4755" d="m10.607 11.535-1.06 2.38.485.216.817-1.838.816 1.838.483-.215-1.06-2.381z" opacity="1" data-original="#e8ab3c" class=""></path><path fill="#fd4755" d="M12.964 10.847c-.573 0-.96.152-1.264.287-.304.136-.513.243-.851.243-.22 0-.378-.054-.479-.104-.1-.05-.129-.084-.129-.084a.265.265 0 1 0-.375.375s.104.1.268.182a1.6 1.6 0 0 0 .715.16c.455 0 .775-.158 1.066-.287.291-.13.564-.242 1.049-.242s.76.112 1.05.242c.292.13.611.287 1.067.287.309 0 .55-.078.713-.16.164-.082.268-.182.268-.182a.265.265 0 1 0-.373-.375s-.03.034-.131.084-.256.104-.477.104c-.338 0-.547-.107-.851-.243a2.917 2.917 0 0 0-1.266-.287zM11.642 16.404h2.646c.353 0 .353-.53 0-.53h-2.66c-.366.02-.338.547.014.53z" opacity="1" data-original="#ffbc42" class=""></path><path fill="#fdce97" d="M3.79 4.759a.837.837 0 0 1 .445.153v1.966c-.657 0-1.324-.508-1.324-1.322v-.01c.013-.39.304-.676.627-.761a.842.842 0 0 1 .252-.027z" opacity="1" data-original="#fdce97" class=""></path><path fill="#fdd5a6" d="M6.88 3.44s-.265.792-1.058.792H4.763a.8.8 0 0 0-.795.795v1.059a2.383 2.383 0 0 0 4.764 0V5.027a.8.8 0 0 0-.795-.795c-.793 0-1.057-.793-1.057-.793z" opacity="1" data-original="#fdd5a6" class=""></path><path fill="#2f5c7e" d="M8.466 8.996a.265.265 0 0 0-.252.185l-2.117 6.881a.265.265 0 0 0 .46.24l2.91-3.703a.265.265 0 0 0 .05-.228l-.229-.912.69-.69a.265.265 0 0 0 .072-.232l-.211-1.21a.265.265 0 0 0-.19-.208 3.47 3.47 0 0 0-.917-.123z" opacity="1" data-original="#2f5c7e" class=""></path><g fill="#ffbc42"><path d="M9.79 13.757a.265.265 0 0 0-.266.266s-.004.319.16.647c.164.327.547.675 1.165.675s.998-.348 1.162-.675c.164-.328.16-.647.16-.647a.265.265 0 0 0-.266-.266zM14.023 13.757a.265.265 0 0 0-.264.266s-.004.319.16.647c.164.327.545.675 1.162.675.617 0 .998-.348 1.162-.675.164-.328.16-.647.16-.647a.265.265 0 0 0-.263-.266z" fill="#fd4755" opacity="1" data-original="#ffbc42" class=""></path></g></g></svg>