<?xml version="1.0" encoding="utf-8"?>
<!-- Generator: Adobe Illustrator 24.0.1, SVG Export Plug-In . SVG Version: 6.00 Build 0)  -->
<svg version="1.1" id="Layer_1" xmlns="http://www.w3.org/2000/svg" xmlns:xlink="http://www.w3.org/1999/xlink" x="0px" y="0px"
	 viewBox="0 0 2000 2000" style="enable-background:new 0 0 2000 2000;" xml:space="preserve">
<style type="text/css">
	.st0{clip-path:url(#SVGID_1_);}
	.st1{clip-path:url(#SVGID_3_);}
	.st2{clip-path:url(#SVGID_4_);fill:#254A72;}
	.st3{clip-path:url(#SVGID_5_);}
	.st4{clip-path:url(#SVGID_9_);}
	.st5{clip-path:url(#SVGID_11_);}
	.st6{clip-path:url(#SVGID_12_);fill:#254A72;}
	.st7{clip-path:url(#SVGID_13_);}
	.st8{clip-path:url(#SVGID_201_);}
	.st9{clip-path:url(#SVGID_203_);}
	.st10{clip-path:url(#SVGID_204_);fill:#254A72;}
	.st11{clip-path:url(#SVGID_205_);}
	.st12{clip-path:url(#SVGID_207_);}
	.st13{clip-path:url(#SVGID_209_);}
	.st14{clip-path:url(#SVGID_210_);fill:#254A72;}
	.st15{clip-path:url(#SVGID_211_);}
	.st16{clip-path:url(#SVGID_213_);}
	.st17{clip-path:url(#SVGID_215_);}
	.st18{clip-path:url(#SVGID_216_);fill:#254A72;}
	.st19{clip-path:url(#SVGID_217_);}
	.st20{clip-path:url(#SVGID_219_);}
	.st21{clip-path:url(#SVGID_221_);}
	.st22{clip-path:url(#SVGID_222_);fill:#254A72;}
	.st23{clip-path:url(#SVGID_223_);}
	.st24{clip-path:url(#SVGID_225_);}
	.st25{clip-path:url(#SVGID_227_);}
	.st26{clip-path:url(#SVGID_228_);fill:#254A72;}
	.st27{clip-path:url(#SVGID_229_);}
	.st28{clip-path:url(#SVGID_231_);}
	.st29{clip-path:url(#SVGID_237_);}
	.st30{clip-path:url(#SVGID_238_);fill:#254A72;}
	.st31{clip-path:url(#SVGID_239_);}
	.st32{fill:#2C4F75;}
	.st33{fill:#EAA259;}
	.st34{clip-path:url(#SVGID_241_);}
	.st35{clip-path:url(#SVGID_243_);}
	.st36{clip-path:url(#SVGID_244_);fill:#FFFFFF;}
	.st37{clip-path:url(#SVGID_245_);}
	.st38{clip-path:url(#SVGID_247_);}
	.st39{clip-path:url(#SVGID_249_);}
	.st40{clip-path:url(#SVGID_250_);fill:#FFFFFF;}
	.st41{clip-path:url(#SVGID_251_);}
	.st42{clip-path:url(#SVGID_253_);}
	.st43{clip-path:url(#SVGID_255_);}
	.st44{clip-path:url(#SVGID_256_);fill:#FFFFFF;}
	.st45{clip-path:url(#SVGID_257_);}
	.st46{clip-path:url(#SVGID_259_);}
	.st47{clip-path:url(#SVGID_261_);}
	.st48{clip-path:url(#SVGID_262_);fill:#FFFFFF;}
	.st49{clip-path:url(#SVGID_263_);}
	.st50{clip-path:url(#SVGID_265_);}
	.st51{clip-path:url(#SVGID_267_);}
	.st52{clip-path:url(#SVGID_268_);fill:#FFFFFF;}
	.st53{clip-path:url(#SVGID_269_);}
	.st54{clip-path:url(#SVGID_271_);}
	.st55{clip-path:url(#SVGID_273_);}
	.st56{clip-path:url(#SVGID_274_);fill:#FFFFFF;}
	.st57{clip-path:url(#SVGID_275_);}
	.st58{clip-path:url(#SVGID_277_);}
	.st59{clip-path:url(#SVGID_279_);}
	.st60{clip-path:url(#SVGID_280_);fill:#FFFFFF;}
	.st61{clip-path:url(#SVGID_281_);}
	.st62{clip-path:url(#SVGID_283_);}
	.st63{clip-path:url(#SVGID_285_);}
	.st64{clip-path:url(#SVGID_286_);fill:#FFFFFF;}
	.st65{clip-path:url(#SVGID_287_);}
	.st66{fill:#FFFFFF;}
	.st67{clip-path:url(#SVGID_289_);}
	.st68{clip-path:url(#SVGID_291_);}
	.st69{clip-path:url(#SVGID_292_);}
	.st70{clip-path:url(#SVGID_293_);}
	.st71{clip-path:url(#SVGID_295_);}
	.st72{clip-path:url(#SVGID_297_);}
	.st73{clip-path:url(#SVGID_298_);}
	.st74{clip-path:url(#SVGID_299_);}
	.st75{clip-path:url(#SVGID_301_);}
	.st76{clip-path:url(#SVGID_303_);}
	.st77{clip-path:url(#SVGID_304_);}
	.st78{clip-path:url(#SVGID_305_);}
	.st79{clip-path:url(#SVGID_307_);}
	.st80{clip-path:url(#SVGID_309_);}
	.st81{clip-path:url(#SVGID_310_);}
	.st82{clip-path:url(#SVGID_311_);}
	.st83{clip-path:url(#SVGID_313_);}
	.st84{clip-path:url(#SVGID_315_);}
	.st85{clip-path:url(#SVGID_316_);}
	.st86{clip-path:url(#SVGID_317_);}
	.st87{clip-path:url(#SVGID_319_);}
	.st88{clip-path:url(#SVGID_321_);}
	.st89{clip-path:url(#SVGID_322_);}
	.st90{clip-path:url(#SVGID_323_);}
	.st91{clip-path:url(#SVGID_325_);}
	.st92{clip-path:url(#SVGID_327_);}
	.st93{clip-path:url(#SVGID_328_);}
	.st94{clip-path:url(#SVGID_329_);}
	.st95{clip-path:url(#SVGID_331_);}
	.st96{clip-path:url(#SVGID_333_);}
	.st97{clip-path:url(#SVGID_334_);}
	.st98{clip-path:url(#SVGID_335_);}
</style>
<g>
	<g>
		<g>
			<defs>
				<path id="SVGID_71_" d="M737.81,688.22h99.06c-6.57,21.5-26.33,36.58-49.49,36.58C764.19,724.79,744.39,709.72,737.81,688.22
					 M1159.48,736.53v-12.5c0-14.1-4.26-27.21-11.52-38.15h0.33h31.89v87.39L1159.48,736.53z M1191.35,685.87h40.5h6.79
					l-47.29,86.76V685.87z M949.07,665.96h10.11h37.04v83.75L949.07,665.96z M1007.41,665.96h35.32h9.96l-45.28,83.12V665.96z
					 M812.89,639.25v37.78H761.9v-37.76c7.64,4.07,16.23,6.59,25.48,6.59C796.65,645.86,805.24,643.34,812.89,639.25
					 M1220.66,624.38v50.31h-61.18V624.4c9.23,4.59,19.56,7.23,30.53,7.23C1201.03,631.63,1211.41,628.97,1220.66,624.38
					 M970.36,610.93c9.23,4.6,19.61,7.25,30.6,7.25c10.99,0,21.34-2.64,30.58-7.23v43.82h-61.18V610.93z M743.88,591.18v-43.51
					h87.01v43.51c0,23.99-19.5,43.5-43.5,43.5C763.4,634.68,743.88,615.17,743.88,591.18 M1132.2,562.52v-4.45
					c11.27-6.46,51.36-30.72,68.68-57.81c8.51,16.13,26.9,46.92,47.07,57.79v4.47c0,31.94-25.98,57.93-57.93,57.93
					C1158.13,620.45,1132.2,594.46,1132.2,562.52 M943.08,549.1v-52.28h1.53h114.26v52.28c0,31.93-25.98,57.91-57.9,57.91
					C969.04,607.01,943.08,581.03,943.08,549.1 M704.41,553.8c0-45.77,37.23-82.99,82.98-82.99c45.77,0,82.99,37.22,82.99,82.99
					v116.05c-2.76,2.19-5.32,4.62-7.71,7.19h-38.59v-45.59c10.97-10.01,17.99-24.28,17.99-40.27v-54.7H732.7v54.7
					c0,16,7.03,30.28,18.02,40.29v45.57h-26.39c-6.93,0-13.6,1.04-19.91,2.94V553.8z M1118.89,531.31
					c0-39.22,31.9-71.13,71.13-71.13c18.95,0,36.86,7.42,50.39,20.84c13.44,13.44,20.85,31.3,20.85,50.28v17.89h-6.55
					c-20.08-9.32-41.86-48.86-48.66-63.57l-5.49-11.88l-4.79,12.2c-11.26,28.63-62.08,58.41-70.63,63.26h-6.26V531.31z
					 M919.73,460.76c0-13.72,11.16-24.87,24.88-24.87h81.11c18.27,0,33.15,14.87,33.15,33.15v16.59H944.61
					C930.89,485.62,919.73,474.47,919.73,460.76 M944.61,424.7c-19.88,0-36.06,16.18-36.06,36.06c0,15.38,9.74,28.45,23.34,33.62
					v54.72c0,22.39,10.75,42.25,27.3,54.88v50.79h-16.41l-0.28-0.5l-0.91,0.5h-28.19c-11.47,0-22.29,2.85-31.82,7.81V553.8
					c0-51.93-42.24-94.18-94.18-94.18c-51.92,0-94.16,42.24-94.16,94.18v130.67c-22.64,11.41-38.25,34.79-38.25,61.8v106.58h11.19
					V746.27c0-32.01,26.08-58.05,58.15-58.05h1.97c6.93,27.89,31.76,47.76,61.09,47.76c29.29,0,54.08-19.86,61.01-47.76h5.83
					c-6.36,10.47-10.08,22.7-10.08,35.81v117.8h11.17v-117.8c0-32.01,26.05-58.06,58.06-58.06h22.85l65.67,116.61l63.51-116.61
					h24.83c32.01,0,58.05,26.05,58.05,58.06v78.85h11.19v-43.56l26.36,46.8l65.53-120.24h27.1c32,0,58.04,26.09,58.04,58.15V861.8
					h11.19V744.02c0-38.23-31.05-69.33-69.23-69.33h-46.63v-57.28c16.55-12.64,27.29-32.51,27.29-54.89v-2.4l13.3,0.27v-29.08
					c0-21.98-8.57-42.64-24.13-58.21c-15.67-15.54-36.38-24.1-58.3-24.1c-45.39,0-82.32,36.93-82.32,82.31v29.08h13.32v2.13
					c0,22.4,10.74,42.29,27.28,54.93v57.25h-9.54c-12.5-12.3-29.62-19.92-48.51-19.92h-29.85l-1.25-0.67l-0.36,0.67h-16.05v-50.76
					c16.56-12.63,27.31-32.51,27.31-54.91v-52.28v-11.19v-16.59c0-24.44-19.88-44.34-44.32-44.34H944.61z"/>
			</defs>
			<clipPath id="SVGID_1_">
				<use xlink:href="#SVGID_71_"  style="overflow:visible;"/>
			</clipPath>
			<g class="st0">
				<g>
					<defs>
						<rect id="SVGID_72_" x="654.98" y="424.7" width="692.73" height="437.1"/>
					</defs>
					<clipPath id="SVGID_2_">
						<use xlink:href="#SVGID_72_"  style="overflow:visible;"/>
					</clipPath>
				</g>
			</g>
		</g>
		<g>
			<defs>
				<path id="SVGID_69_" d="M737.81,688.22h99.06c-6.57,21.5-26.33,36.58-49.49,36.58C764.19,724.79,744.39,709.72,737.81,688.22
					 M1159.48,736.53v-12.5c0-14.1-4.26-27.21-11.52-38.15h0.33h31.89v87.39L1159.48,736.53z M1191.35,685.87h40.5h6.79
					l-47.29,86.76V685.87z M949.07,665.96h10.11h37.04v83.75L949.07,665.96z M1007.41,665.96h35.32h9.96l-45.28,83.12V665.96z
					 M812.89,639.25v37.78H761.9v-37.76c7.64,4.07,16.23,6.59,25.48,6.59C796.65,645.86,805.24,643.34,812.89,639.25
					 M1220.66,624.38v50.31h-61.18V624.4c9.23,4.59,19.56,7.23,30.53,7.23C1201.03,631.63,1211.41,628.97,1220.66,624.38
					 M970.36,610.93c9.23,4.6,19.61,7.25,30.6,7.25c10.99,0,21.34-2.64,30.58-7.23v43.82h-61.18V610.93z M743.88,591.18v-43.51
					h87.01v43.51c0,23.99-19.5,43.5-43.5,43.5C763.4,634.68,743.88,615.17,743.88,591.18 M1132.2,562.52v-4.45
					c11.27-6.46,51.36-30.72,68.68-57.81c8.51,16.13,26.9,46.92,47.07,57.79v4.47c0,31.94-25.98,57.93-57.93,57.93
					C1158.13,620.45,1132.2,594.46,1132.2,562.52 M943.08,549.1v-52.28h1.53h114.26v52.28c0,31.93-25.98,57.91-57.9,57.91
					C969.04,607.01,943.08,581.03,943.08,549.1 M704.41,553.8c0-45.77,37.23-82.99,82.98-82.99c45.77,0,82.99,37.22,82.99,82.99
					v116.05c-2.76,2.19-5.32,4.62-7.71,7.19h-38.59v-45.59c10.97-10.01,17.99-24.28,17.99-40.27v-54.7H732.7v54.7
					c0,16,7.03,30.28,18.02,40.29v45.57h-26.39c-6.93,0-13.6,1.04-19.91,2.94V553.8z M1118.89,531.31
					c0-39.22,31.9-71.13,71.13-71.13c18.95,0,36.86,7.42,50.39,20.84c13.44,13.44,20.85,31.3,20.85,50.28v17.89h-6.55
					c-20.08-9.32-41.86-48.86-48.66-63.57l-5.49-11.88l-4.79,12.2c-11.26,28.63-62.08,58.41-70.63,63.26h-6.26V531.31z
					 M919.73,460.76c0-13.72,11.16-24.87,24.88-24.87h81.11c18.27,0,33.15,14.87,33.15,33.15v16.59H944.61
					C930.89,485.62,919.73,474.47,919.73,460.76 M944.61,424.7c-19.88,0-36.06,16.18-36.06,36.06c0,15.38,9.74,28.45,23.34,33.62
					v54.72c0,22.39,10.75,42.25,27.3,54.88v50.79h-16.41l-0.28-0.5l-0.91,0.5h-28.19c-11.47,0-22.29,2.85-31.82,7.81V553.8
					c0-51.93-42.24-94.18-94.18-94.18c-51.92,0-94.16,42.24-94.16,94.18v130.67c-22.64,11.41-38.25,34.79-38.25,61.8v106.58h11.19
					V746.27c0-32.01,26.08-58.05,58.15-58.05h1.97c6.93,27.89,31.76,47.76,61.09,47.76c29.29,0,54.08-19.86,61.01-47.76h5.83
					c-6.36,10.47-10.08,22.7-10.08,35.81v117.8h11.17v-117.8c0-32.01,26.05-58.06,58.06-58.06h22.85l65.67,116.61l63.51-116.61
					h24.83c32.01,0,58.05,26.05,58.05,58.06v78.85h11.19v-43.56l26.36,46.8l65.53-120.24h27.1c32,0,58.04,26.09,58.04,58.15V861.8
					h11.19V744.02c0-38.23-31.05-69.33-69.23-69.33h-46.63v-57.28c16.55-12.64,27.29-32.51,27.29-54.89v-2.4l13.3,0.27v-29.08
					c0-21.98-8.57-42.64-24.13-58.21c-15.67-15.54-36.38-24.1-58.3-24.1c-45.39,0-82.32,36.93-82.32,82.31v29.08h13.32v2.13
					c0,22.4,10.74,42.29,27.28,54.93v57.25h-9.54c-12.5-12.3-29.62-19.92-48.51-19.92h-29.85l-1.25-0.67l-0.36,0.67h-16.05v-50.76
					c16.56-12.63,27.31-32.51,27.31-54.91v-52.28v-11.19v-16.59c0-24.44-19.88-44.34-44.32-44.34H944.61z"/>
			</defs>
			<use xlink:href="#SVGID_69_"  style="overflow:visible;fill:#254A72;"/>
			<clipPath id="SVGID_3_">
				<use xlink:href="#SVGID_69_"  style="overflow:visible;"/>
			</clipPath>
			<g class="st1">
				<g>
					<defs>
						<rect id="SVGID_70_" x="654.98" y="424.7" width="692.73" height="437.1"/>
					</defs>
					<use xlink:href="#SVGID_70_"  style="overflow:visible;fill:#254A72;"/>
					<clipPath id="SVGID_4_">
						<use xlink:href="#SVGID_70_"  style="overflow:visible;"/>
					</clipPath>
					<rect x="654.98" y="424.7" class="st2" width="69.27" height="437.1"/>
					<rect x="724.25" y="424.7" class="st2" width="69.27" height="437.1"/>
					<rect x="793.53" y="424.7" class="st2" width="69.27" height="437.1"/>
					<rect x="862.8" y="424.7" class="st2" width="69.27" height="437.1"/>
					<rect x="932.07" y="424.7" class="st2" width="69.27" height="437.1"/>
					<rect x="1001.34" y="424.7" class="st2" width="69.27" height="437.1"/>
					<rect x="1070.62" y="424.7" class="st2" width="69.27" height="437.1"/>
					<rect x="1139.89" y="424.7" class="st2" width="69.27" height="437.1"/>
					<rect x="1209.16" y="424.7" class="st2" width="69.27" height="437.1"/>
					<rect x="1278.43" y="424.7" class="st2" width="69.27" height="437.1"/>
				</g>
			</g>
		</g>
		<g>
			<defs>
				<path id="SVGID_67_" d="M737.81,688.22h99.06c-6.57,21.5-26.33,36.58-49.49,36.58C764.19,724.79,744.39,709.72,737.81,688.22
					 M1159.48,736.53v-12.5c0-14.1-4.26-27.21-11.52-38.15h0.33h31.89v87.39L1159.48,736.53z M1191.35,685.87h40.5h6.79
					l-47.29,86.76V685.87z M949.07,665.96h10.11h37.04v83.75L949.07,665.96z M1007.41,665.96h35.32h9.96l-45.28,83.12V665.96z
					 M812.89,639.25v37.78H761.9v-37.76c7.64,4.07,16.23,6.59,25.48,6.59C796.65,645.86,805.24,643.34,812.89,639.25
					 M1220.66,624.38v50.31h-61.18V624.4c9.23,4.59,19.56,7.23,30.53,7.23C1201.03,631.63,1211.41,628.97,1220.66,624.38
					 M970.36,610.93c9.23,4.6,19.61,7.25,30.6,7.25c10.99,0,21.34-2.64,30.58-7.23v43.82h-61.18V610.93z M743.88,591.18v-43.51
					h87.01v43.51c0,23.99-19.5,43.5-43.5,43.5C763.4,634.68,743.88,615.17,743.88,591.18 M1132.2,562.52v-4.45
					c11.27-6.46,51.36-30.72,68.68-57.81c8.51,16.13,26.9,46.92,47.07,57.79v4.47c0,31.94-25.98,57.93-57.93,57.93
					C1158.13,620.45,1132.2,594.46,1132.2,562.52 M943.08,549.1v-52.28h1.53h114.26v52.28c0,31.93-25.98,57.91-57.9,57.91
					C969.04,607.01,943.08,581.03,943.08,549.1 M704.41,553.8c0-45.77,37.23-82.99,82.98-82.99c45.77,0,82.99,37.22,82.99,82.99
					v116.05c-2.76,2.19-5.32,4.62-7.71,7.19h-38.59v-45.59c10.97-10.01,17.99-24.28,17.99-40.27v-54.7H732.7v54.7
					c0,16,7.03,30.28,18.02,40.29v45.57h-26.39c-6.93,0-13.6,1.04-19.91,2.94V553.8z M1118.89,531.31
					c0-39.22,31.9-71.13,71.13-71.13c18.95,0,36.86,7.42,50.39,20.84c13.44,13.44,20.85,31.3,20.85,50.28v17.89h-6.55
					c-20.08-9.32-41.86-48.86-48.66-63.57l-5.49-11.88l-4.79,12.2c-11.26,28.63-62.08,58.41-70.63,63.26h-6.26V531.31z
					 M919.73,460.76c0-13.72,11.16-24.87,24.88-24.87h81.11c18.27,0,33.15,14.87,33.15,33.15v16.59H944.61
					C930.89,485.62,919.73,474.47,919.73,460.76 M944.61,424.7c-19.88,0-36.06,16.18-36.06,36.06c0,15.38,9.74,28.45,23.34,33.62
					v54.72c0,22.39,10.75,42.25,27.3,54.88v50.79h-16.41l-0.28-0.5l-0.91,0.5h-28.19c-11.47,0-22.29,2.85-31.82,7.81V553.8
					c0-51.93-42.24-94.18-94.18-94.18c-51.92,0-94.16,42.24-94.16,94.18v130.67c-22.64,11.41-38.25,34.79-38.25,61.8v106.58h11.19
					V746.27c0-32.01,26.08-58.05,58.15-58.05h1.97c6.93,27.89,31.76,47.76,61.09,47.76c29.29,0,54.08-19.86,61.01-47.76h5.83
					c-6.36,10.47-10.08,22.7-10.08,35.81v117.8h11.17v-117.8c0-32.01,26.05-58.06,58.06-58.06h22.85l65.67,116.61l63.51-116.61
					h24.83c32.01,0,58.05,26.05,58.05,58.06v78.85h11.19v-43.56l26.36,46.8l65.53-120.24h27.1c32,0,58.04,26.09,58.04,58.15V861.8
					h11.19V744.02c0-38.23-31.05-69.33-69.23-69.33h-46.63v-57.28c16.55-12.64,27.29-32.51,27.29-54.89v-2.4l13.3,0.27v-29.08
					c0-21.98-8.57-42.64-24.13-58.21c-15.67-15.54-36.38-24.1-58.3-24.1c-45.39,0-82.32,36.93-82.32,82.31v29.08h13.32v2.13
					c0,22.4,10.74,42.29,27.28,54.93v57.25h-9.54c-12.5-12.3-29.62-19.92-48.51-19.92h-29.85l-1.25-0.67l-0.36,0.67h-16.05v-50.76
					c16.56-12.63,27.31-32.51,27.31-54.91v-52.28v-11.19v-16.59c0-24.44-19.88-44.34-44.32-44.34H944.61z"/>
			</defs>
			<clipPath id="SVGID_5_">
				<use xlink:href="#SVGID_67_"  style="overflow:visible;"/>
			</clipPath>
			<g class="st3">
				<g>
					<defs>
						<rect id="SVGID_68_" x="654.98" y="424.7" width="692.73" height="437.1"/>
					</defs>
					<clipPath id="SVGID_6_">
						<use xlink:href="#SVGID_68_"  style="overflow:visible;"/>
					</clipPath>
				</g>
			</g>
		</g>
	</g>
	<g>
		<g>
			<defs>
				<rect id="SVGID_65_" x="989.77" y="529.54" width="22.37" height="35.82"/>
			</defs>
			<clipPath id="SVGID_9_">
				<use xlink:href="#SVGID_65_"  style="overflow:visible;"/>
			</clipPath>
			<g class="st4">
				<g>
					<defs>
						<rect id="SVGID_66_" x="989.77" y="529.54" width="22.37" height="35.82"/>
					</defs>
					<clipPath id="SVGID_10_">
						<use xlink:href="#SVGID_66_"  style="overflow:visible;"/>
					</clipPath>
				</g>
			</g>
		</g>
		<g>
			<defs>
				<rect id="SVGID_63_" x="989.77" y="529.54" width="22.37" height="35.82"/>
			</defs>
			<use xlink:href="#SVGID_63_"  style="overflow:visible;fill:#254A72;"/>
			<clipPath id="SVGID_11_">
				<use xlink:href="#SVGID_63_"  style="overflow:visible;"/>
			</clipPath>
			<g class="st5">
				<g>
					<defs>
						<rect id="SVGID_64_" x="989.77" y="529.54" width="22.37" height="35.82"/>
					</defs>
					<use xlink:href="#SVGID_64_"  style="overflow:visible;fill:#254A72;"/>
					<clipPath id="SVGID_12_">
						<use xlink:href="#SVGID_64_"  style="overflow:visible;"/>
					</clipPath>
					<rect x="989.77" y="529.54" class="st6" width="2.24" height="35.82"/>
					<rect x="992.01" y="529.54" class="st6" width="2.24" height="35.82"/>
					<rect x="994.25" y="529.54" class="st6" width="2.24" height="35.82"/>
					<rect x="996.49" y="529.54" class="st6" width="2.24" height="35.82"/>
					<rect x="998.72" y="529.54" class="st6" width="2.24" height="35.82"/>
					<rect x="1000.96" y="529.54" class="st6" width="2.24" height="35.82"/>
					<rect x="1003.2" y="529.54" class="st6" width="2.24" height="35.82"/>
					<rect x="1005.43" y="529.54" class="st6" width="2.24" height="35.82"/>
					<rect x="1007.67" y="529.54" class="st6" width="2.24" height="35.82"/>
					<rect x="1009.91" y="529.54" class="st6" width="2.24" height="35.82"/>
				</g>
			</g>
		</g>
		<g>
			<defs>
				<rect id="SVGID_61_" x="989.77" y="529.54" width="22.37" height="35.82"/>
			</defs>
			<clipPath id="SVGID_13_">
				<use xlink:href="#SVGID_61_"  style="overflow:visible;"/>
			</clipPath>
			<g class="st7">
				<g>
					<defs>
						<rect id="SVGID_62_" x="989.77" y="529.54" width="22.37" height="35.82"/>
					</defs>
					<clipPath id="SVGID_14_">
						<use xlink:href="#SVGID_62_"  style="overflow:visible;"/>
					</clipPath>
				</g>
			</g>
		</g>
	</g>
	<g>
		<g>
			<defs>
				<path id="SVGID_59_" d="M718.4,844.09v22.45h11.18V839.5l-1.64-1.64c-40.12-40.12-1.16-93.05,0.51-95.29l-8.93-6.74
					C719.06,736.45,674.1,797.28,718.4,844.09"/>
			</defs>
			<clipPath id="SVGID_201_">
				<use xlink:href="#SVGID_59_"  style="overflow:visible;"/>
			</clipPath>
			<g class="st8">
				<g>
					<defs>
						<rect id="SVGID_60_" x="674.1" y="735.84" width="55.48" height="130.71"/>
					</defs>
					<clipPath id="SVGID_202_">
						<use xlink:href="#SVGID_60_"  style="overflow:visible;"/>
					</clipPath>
				</g>
			</g>
		</g>
		<g>
			<defs>
				<path id="SVGID_57_" d="M718.4,844.09v22.45h11.18V839.5l-1.64-1.64c-40.12-40.12-1.16-93.05,0.51-95.29l-8.93-6.74
					C719.06,736.45,674.1,797.28,718.4,844.09"/>
			</defs>
			<use xlink:href="#SVGID_57_"  style="overflow:visible;fill:#254A72;"/>
			<clipPath id="SVGID_203_">
				<use xlink:href="#SVGID_57_"  style="overflow:visible;"/>
			</clipPath>
			<g class="st9">
				<g>
					<defs>
						<rect id="SVGID_58_" x="674.1" y="735.84" width="55.48" height="130.71"/>
					</defs>
					<use xlink:href="#SVGID_58_"  style="overflow:visible;fill:#254A72;"/>
					<clipPath id="SVGID_204_">
						<use xlink:href="#SVGID_58_"  style="overflow:visible;"/>
					</clipPath>
					<rect x="674.1" y="735.84" class="st10" width="24.8" height="130.71"/>
					<rect x="698.9" y="735.84" class="st10" width="3.07" height="130.71"/>
					<rect x="701.97" y="735.84" class="st10" width="3.07" height="130.71"/>
					<rect x="705.04" y="735.84" class="st10" width="3.07" height="130.71"/>
					<rect x="708.11" y="735.84" class="st10" width="3.07" height="130.71"/>
					<rect x="711.17" y="735.84" class="st10" width="3.07" height="130.71"/>
					<rect x="714.24" y="735.84" class="st10" width="3.07" height="130.71"/>
					<rect x="717.31" y="735.84" class="st10" width="3.07" height="130.71"/>
					<rect x="720.38" y="735.84" class="st10" width="3.07" height="130.71"/>
					<rect x="723.45" y="735.84" class="st10" width="3.07" height="130.71"/>
					<rect x="726.51" y="735.84" class="st10" width="3.07" height="130.71"/>
				</g>
			</g>
		</g>
		<g>
			<defs>
				<path id="SVGID_43_" d="M718.4,844.09v22.45h11.18V839.5l-1.64-1.64c-40.12-40.12-1.16-93.05,0.51-95.29l-8.93-6.74
					C719.06,736.45,674.1,797.28,718.4,844.09"/>
			</defs>
			<clipPath id="SVGID_205_">
				<use xlink:href="#SVGID_43_"  style="overflow:visible;"/>
			</clipPath>
			<g class="st11">
				<g>
					<defs>
						<rect id="SVGID_44_" x="674.1" y="735.84" width="55.48" height="130.71"/>
					</defs>
					<clipPath id="SVGID_206_">
						<use xlink:href="#SVGID_44_"  style="overflow:visible;"/>
					</clipPath>
				</g>
			</g>
		</g>
	</g>
	<g>
		<g>
			<defs>
				<rect id="SVGID_41_" x="905.31" y="739.21" width="11.19" height="102.61"/>
			</defs>
			<clipPath id="SVGID_207_">
				<use xlink:href="#SVGID_41_"  style="overflow:visible;"/>
			</clipPath>
			<g class="st12">
				<g>
					<defs>
						<rect id="SVGID_42_" x="905.31" y="739.21" width="11.19" height="102.61"/>
					</defs>
					<clipPath id="SVGID_208_">
						<use xlink:href="#SVGID_42_"  style="overflow:visible;"/>
					</clipPath>
				</g>
			</g>
		</g>
		<g>
			<defs>
				<rect id="SVGID_39_" x="905.31" y="739.21" width="11.19" height="102.61"/>
			</defs>
			<use xlink:href="#SVGID_39_"  style="overflow:visible;fill:#254A72;"/>
			<clipPath id="SVGID_209_">
				<use xlink:href="#SVGID_39_"  style="overflow:visible;"/>
			</clipPath>
			<g class="st13">
				<g>
					<defs>
						<rect id="SVGID_40_" x="905.31" y="739.21" width="11.19" height="102.61"/>
					</defs>
					<use xlink:href="#SVGID_40_"  style="overflow:visible;fill:#254A72;"/>
					<clipPath id="SVGID_210_">
						<use xlink:href="#SVGID_40_"  style="overflow:visible;"/>
					</clipPath>
					<rect x="905.31" y="739.21" class="st14" width="1.12" height="102.61"/>
					<rect x="906.43" y="739.21" class="st14" width="1.12" height="102.61"/>
					<rect x="907.55" y="739.21" class="st14" width="1.12" height="102.61"/>
					<rect x="908.67" y="739.21" class="st14" width="1.12" height="102.61"/>
					<rect x="909.79" y="739.21" class="st14" width="1.12" height="102.61"/>
					<rect x="910.91" y="739.21" class="st14" width="1.12" height="102.61"/>
					<rect x="912.03" y="739.21" class="st14" width="1.12" height="102.61"/>
					<rect x="913.15" y="739.21" class="st14" width="1.12" height="102.61"/>
					<rect x="914.27" y="739.21" class="st14" width="1.12" height="102.61"/>
					<rect x="915.38" y="739.21" class="st14" width="1.12" height="102.61"/>
				</g>
			</g>
		</g>
		<g>
			<defs>
				<rect id="SVGID_37_" x="905.31" y="739.21" width="11.19" height="102.61"/>
			</defs>
			<clipPath id="SVGID_211_">
				<use xlink:href="#SVGID_37_"  style="overflow:visible;"/>
			</clipPath>
			<g class="st15">
				<g>
					<defs>
						<rect id="SVGID_38_" x="905.31" y="739.21" width="11.19" height="102.61"/>
					</defs>
					<clipPath id="SVGID_212_">
						<use xlink:href="#SVGID_38_"  style="overflow:visible;"/>
					</clipPath>
				</g>
			</g>
		</g>
	</g>
	<g>
		<g>
			<defs>
				<rect id="SVGID_35_" x="1081.18" y="739.21" width="11.19" height="63.67"/>
			</defs>
			<clipPath id="SVGID_213_">
				<use xlink:href="#SVGID_35_"  style="overflow:visible;"/>
			</clipPath>
			<g class="st16">
				<g>
					<defs>
						<rect id="SVGID_36_" x="1081.18" y="739.21" width="11.19" height="63.67"/>
					</defs>
					<clipPath id="SVGID_214_">
						<use xlink:href="#SVGID_36_"  style="overflow:visible;"/>
					</clipPath>
				</g>
			</g>
		</g>
		<g>
			<defs>
				<rect id="SVGID_33_" x="1081.18" y="739.21" width="11.19" height="63.67"/>
			</defs>
			<use xlink:href="#SVGID_33_"  style="overflow:visible;fill:#254A72;"/>
			<clipPath id="SVGID_215_">
				<use xlink:href="#SVGID_33_"  style="overflow:visible;"/>
			</clipPath>
			<g class="st17">
				<g>
					<defs>
						<rect id="SVGID_34_" x="1081.18" y="739.21" width="11.19" height="63.67"/>
					</defs>
					<use xlink:href="#SVGID_34_"  style="overflow:visible;fill:#254A72;"/>
					<clipPath id="SVGID_216_">
						<use xlink:href="#SVGID_34_"  style="overflow:visible;"/>
					</clipPath>
					<rect x="1081.18" y="739.21" class="st18" width="1.12" height="63.67"/>
					<rect x="1082.3" y="739.21" class="st18" width="1.12" height="63.67"/>
					<rect x="1083.42" y="739.21" class="st18" width="1.12" height="63.67"/>
					<rect x="1084.54" y="739.21" class="st18" width="1.12" height="63.67"/>
					<rect x="1085.66" y="739.21" class="st18" width="1.12" height="63.67"/>
					<rect x="1086.77" y="739.21" class="st18" width="1.12" height="63.67"/>
					<rect x="1087.89" y="739.21" class="st18" width="1.12" height="63.67"/>
					<rect x="1089.01" y="739.21" class="st18" width="1.12" height="63.67"/>
					<rect x="1090.13" y="739.21" class="st18" width="1.12" height="63.67"/>
					<rect x="1091.25" y="739.21" class="st18" width="1.12" height="63.67"/>
				</g>
			</g>
		</g>
		<g>
			<defs>
				<rect id="SVGID_31_" x="1081.18" y="739.21" width="11.19" height="63.67"/>
			</defs>
			<clipPath id="SVGID_217_">
				<use xlink:href="#SVGID_31_"  style="overflow:visible;"/>
			</clipPath>
			<g class="st19">
				<g>
					<defs>
						<rect id="SVGID_32_" x="1081.18" y="739.21" width="11.19" height="63.67"/>
					</defs>
					<clipPath id="SVGID_218_">
						<use xlink:href="#SVGID_32_"  style="overflow:visible;"/>
					</clipPath>
				</g>
			</g>
		</g>
	</g>
	<g>
		<g>
			<defs>
				<rect id="SVGID_29_" x="996.22" y="815.22" width="11.19" height="26.6"/>
			</defs>
			<clipPath id="SVGID_219_">
				<use xlink:href="#SVGID_29_"  style="overflow:visible;"/>
			</clipPath>
			<g class="st20">
				<g>
					<defs>
						<rect id="SVGID_30_" x="996.22" y="815.22" width="11.19" height="26.6"/>
					</defs>
					<clipPath id="SVGID_220_">
						<use xlink:href="#SVGID_30_"  style="overflow:visible;"/>
					</clipPath>
				</g>
			</g>
		</g>
		<g>
			<defs>
				<rect id="SVGID_27_" x="996.22" y="815.22" width="11.19" height="26.6"/>
			</defs>
			<use xlink:href="#SVGID_27_"  style="overflow:visible;fill:#254A72;"/>
			<clipPath id="SVGID_221_">
				<use xlink:href="#SVGID_27_"  style="overflow:visible;"/>
			</clipPath>
			<g class="st21">
				<g>
					<defs>
						<rect id="SVGID_28_" x="996.22" y="815.22" width="11.19" height="26.6"/>
					</defs>
					<use xlink:href="#SVGID_28_"  style="overflow:visible;fill:#254A72;"/>
					<clipPath id="SVGID_222_">
						<use xlink:href="#SVGID_28_"  style="overflow:visible;"/>
					</clipPath>
					<rect x="996.22" y="815.22" class="st22" width="1.12" height="26.6"/>
					<rect x="997.34" y="815.22" class="st22" width="1.12" height="26.6"/>
					<rect x="998.46" y="815.22" class="st22" width="1.12" height="26.6"/>
					<rect x="999.58" y="815.22" class="st22" width="1.12" height="26.6"/>
					<rect x="1000.7" y="815.22" class="st22" width="1.12" height="26.6"/>
					<rect x="1001.82" y="815.22" class="st22" width="1.12" height="26.6"/>
					<rect x="1002.93" y="815.22" class="st22" width="1.12" height="26.6"/>
					<rect x="1004.05" y="815.22" class="st22" width="1.12" height="26.6"/>
					<rect x="1005.17" y="815.22" class="st22" width="1.12" height="26.6"/>
					<rect x="1006.29" y="815.22" class="st22" width="1.12" height="26.6"/>
				</g>
			</g>
		</g>
		<g>
			<defs>
				<rect id="SVGID_25_" x="996.22" y="815.22" width="11.19" height="26.6"/>
			</defs>
			<clipPath id="SVGID_223_">
				<use xlink:href="#SVGID_25_"  style="overflow:visible;"/>
			</clipPath>
			<g class="st23">
				<g>
					<defs>
						<rect id="SVGID_26_" x="996.22" y="815.22" width="11.19" height="26.6"/>
					</defs>
					<clipPath id="SVGID_224_">
						<use xlink:href="#SVGID_26_"  style="overflow:visible;"/>
					</clipPath>
				</g>
			</g>
		</g>
	</g>
	<g>
		<g>
			<defs>
				<rect id="SVGID_129_" x="1267.18" y="751.1" width="11.18" height="101.74"/>
			</defs>
			<clipPath id="SVGID_225_">
				<use xlink:href="#SVGID_129_"  style="overflow:visible;"/>
			</clipPath>
			<g class="st24">
				<g>
					<defs>
						<rect id="SVGID_130_" x="1267.18" y="751.1" width="11.18" height="101.74"/>
					</defs>
					<clipPath id="SVGID_226_">
						<use xlink:href="#SVGID_130_"  style="overflow:visible;"/>
					</clipPath>
				</g>
			</g>
		</g>
		<g>
			<defs>
				<rect id="SVGID_127_" x="1267.18" y="751.1" width="11.18" height="101.74"/>
			</defs>
			<use xlink:href="#SVGID_127_"  style="overflow:visible;fill:#254A72;"/>
			<clipPath id="SVGID_227_">
				<use xlink:href="#SVGID_127_"  style="overflow:visible;"/>
			</clipPath>
			<g class="st25">
				<g>
					<defs>
						<rect id="SVGID_128_" x="1267.18" y="751.1" width="11.18" height="101.74"/>
					</defs>
					<use xlink:href="#SVGID_128_"  style="overflow:visible;fill:#254A72;"/>
					<clipPath id="SVGID_228_">
						<use xlink:href="#SVGID_128_"  style="overflow:visible;"/>
					</clipPath>
					<rect x="1267.18" y="751.1" class="st26" width="1.12" height="101.74"/>
					<rect x="1268.29" y="751.1" class="st26" width="1.12" height="101.74"/>
					<rect x="1269.41" y="751.1" class="st26" width="1.12" height="101.74"/>
					<rect x="1270.53" y="751.1" class="st26" width="1.12" height="101.74"/>
					<rect x="1271.65" y="751.1" class="st26" width="1.12" height="101.74"/>
					<rect x="1272.77" y="751.1" class="st26" width="1.12" height="101.74"/>
					<rect x="1273.88" y="751.1" class="st26" width="1.12" height="101.74"/>
					<rect x="1275" y="751.1" class="st26" width="1.12" height="101.74"/>
					<rect x="1276.12" y="751.1" class="st26" width="1.12" height="101.74"/>
					<rect x="1277.24" y="751.1" class="st26" width="1.12" height="101.74"/>
				</g>
			</g>
		</g>
		<g>
			<defs>
				<rect id="SVGID_125_" x="1267.18" y="751.1" width="11.18" height="101.74"/>
			</defs>
			<clipPath id="SVGID_229_">
				<use xlink:href="#SVGID_125_"  style="overflow:visible;"/>
			</clipPath>
			<g class="st27">
				<g>
					<defs>
						<rect id="SVGID_126_" x="1267.18" y="751.1" width="11.18" height="101.74"/>
					</defs>
					<clipPath id="SVGID_230_">
						<use xlink:href="#SVGID_126_"  style="overflow:visible;"/>
					</clipPath>
				</g>
			</g>
		</g>
	</g>
	<g>
		<g>
			<defs>
				<path id="SVGID_137_" d="M735.84,1053.38l56.66-59.08v77.78C772.35,1071.02,752.58,1064.68,735.84,1053.38 M906.94,985.98h36.28
					v86.45h-36.28V985.98z M954.4,985.98h225.87c2.72,28.25,25.07,50.58,53.32,53.29v33.16H954.4V985.98z M803.69,985.87h61.48
					l2.15,0.11h28.44v86.45h-92.07V985.87z M1190.88,980.3c0-26.64,21.69-48.33,48.34-48.33c26.65,0,48.35,21.68,48.35,48.33
					c0,26.66-21.69,48.35-48.35,48.35C1212.57,1028.65,1190.88,1006.97,1190.88,980.3 M1244.78,1075.22v-35.94
					c30.18-2.85,53.97-28.05,53.97-58.98c0-12.98-4.31-24.92-11.4-34.72c8.92-7.14,14.79-17.53,16.26-28.87h52.15v242.3
					L1244.78,1075.22z M719.45,1039.8l-61.08-61.18c-9.12-9.1-14.12-21.24-14.12-34.18c0-12.87,5.09-25.01,14.35-34.19
					c9.1-9.1,21.13-14.08,33.98-14.08l1.16,0.03c13.33,0.3,25.62,5.9,34.61,15.76l62.13,68.27l-63.61,66.33
					C724.13,1044.29,721.7,1042.05,719.45,1039.8 M824.04,931.51c0-11.55,4.5-22.43,12.68-30.6c8.18-8.17,19.04-12.68,30.59-12.68
					h28.44v86.45H865.1C842.06,973.57,824.04,954.61,824.04,931.51 M906.94,888.23h36.28v86.45h-36.28V888.23z M954.4,888.23h79.05
					v86.45H954.4V888.23z M1226.36,911.12c0-9.32,3.81-18.01,10.72-24.41c6.18-5.68,14.18-8.81,22.5-8.81
					c18.32,0,33.22,14.9,33.22,33.22c0,10.23-5.03,19.68-13.04,25.88c-10.65-9.98-24.84-16.2-40.54-16.2
					c-3.7,0-7.31,0.43-10.82,1.09C1227.2,918.48,1226.36,914.89,1226.36,911.12 M1044.62,884.74l0.03-0.05
					c8.47-21.6,44-37.28,84.49-37.28c40.48,0,76.01,15.68,84.49,37.28l1.39,3.54h6.75c-4.18,6.86-6.6,14.64-6.6,22.89
					c0,4.81,1.04,9.43,2.52,13.85c-20.48,8-35.24,27-37.42,49.71h-135.65V884.74z M1035.82,877.06H867.32
					c-14.54,0-28.21,5.66-38.51,15.94c-10.28,10.28-15.95,23.97-15.95,38.51c0,17.62,8.41,33.23,21.32,43.17h-33.63l-63.94-70.25
					c-11.06-12.14-26.19-19.04-42.62-19.42c-16.48-0.31-31.73,5.79-43.28,17.31c-11.39,11.27-17.65,26.23-17.65,42.12
					c0,15.92,6.17,30.87,17.4,42.08l61.07,61.18c2.33,2.33,4.83,4.62,7.57,6.95l-0.13,0.14l4.98,3.79
					c19.71,15.03,43.86,23.68,68.54,24.85v0.16h4.07l1.57,0.07v-0.07h439.2l129.61,97.85V905.52h-63.53
					c-2.79-21.82-21.27-38.81-43.83-38.81c-10.34,0-20.2,3.75-28.19,10.35h-8.95c-12.26-24.22-49.78-40.82-93.31-40.82
					C1085.6,836.23,1048.08,852.84,1035.82,877.06"/>
			</defs>
			<clipPath id="SVGID_231_">
				<use xlink:href="#SVGID_137_"  style="overflow:visible;"/>
			</clipPath>
			<g class="st28">
				<g>
					<defs>
						<rect id="SVGID_138_" x="633.06" y="836.23" width="733.88" height="345.23"/>
					</defs>
					<clipPath id="SVGID_232_">
						<use xlink:href="#SVGID_138_"  style="overflow:visible;"/>
					</clipPath>
				</g>
			</g>
		</g>
		<g>
			<defs>
				<path id="SVGID_135_" d="M735.84,1053.38l56.66-59.08v77.78C772.35,1071.02,752.58,1064.68,735.84,1053.38 M906.94,985.98h36.28
					v86.45h-36.28V985.98z M954.4,985.98h225.87c2.72,28.25,25.07,50.58,53.32,53.29v33.16H954.4V985.98z M803.69,985.87h61.48
					l2.15,0.11h28.44v86.45h-92.07V985.87z M1190.88,980.3c0-26.64,21.69-48.33,48.34-48.33c26.65,0,48.35,21.68,48.35,48.33
					c0,26.66-21.69,48.35-48.35,48.35C1212.57,1028.65,1190.88,1006.97,1190.88,980.3 M1244.78,1075.22v-35.94
					c30.18-2.85,53.97-28.05,53.97-58.98c0-12.98-4.31-24.92-11.4-34.72c8.92-7.14,14.79-17.53,16.26-28.87h52.15v242.3
					L1244.78,1075.22z M719.45,1039.8l-61.08-61.18c-9.12-9.1-14.12-21.24-14.12-34.18c0-12.87,5.09-25.01,14.35-34.19
					c9.1-9.1,21.13-14.08,33.98-14.08l1.16,0.03c13.33,0.3,25.62,5.9,34.61,15.76l62.13,68.27l-63.61,66.33
					C724.13,1044.29,721.7,1042.05,719.45,1039.8 M824.04,931.51c0-11.55,4.5-22.43,12.68-30.6c8.18-8.17,19.04-12.68,30.59-12.68
					h28.44v86.45H865.1C842.06,973.57,824.04,954.61,824.04,931.51 M906.94,888.23h36.28v86.45h-36.28V888.23z M954.4,888.23h79.05
					v86.45H954.4V888.23z M1226.36,911.12c0-9.32,3.81-18.01,10.72-24.41c6.18-5.68,14.18-8.81,22.5-8.81
					c18.32,0,33.22,14.9,33.22,33.22c0,10.23-5.03,19.68-13.04,25.88c-10.65-9.98-24.84-16.2-40.54-16.2
					c-3.7,0-7.31,0.43-10.82,1.09C1227.2,918.48,1226.36,914.89,1226.36,911.12 M1044.62,884.74l0.03-0.05
					c8.47-21.6,44-37.28,84.49-37.28c40.48,0,76.01,15.68,84.49,37.28l1.39,3.54h6.75c-4.18,6.86-6.6,14.64-6.6,22.89
					c0,4.81,1.04,9.43,2.52,13.85c-20.48,8-35.24,27-37.42,49.71h-135.65V884.74z M1035.82,877.06H867.32
					c-14.54,0-28.21,5.66-38.51,15.94c-10.28,10.28-15.95,23.97-15.95,38.51c0,17.62,8.41,33.23,21.32,43.17h-33.63l-63.94-70.25
					c-11.06-12.14-26.19-19.04-42.62-19.42c-16.48-0.31-31.73,5.79-43.28,17.31c-11.39,11.27-17.65,26.23-17.65,42.12
					c0,15.92,6.17,30.87,17.4,42.08l61.07,61.18c2.33,2.33,4.83,4.62,7.57,6.95l-0.13,0.14l4.98,3.79
					c19.71,15.03,43.86,23.68,68.54,24.85v0.16h4.07l1.57,0.07v-0.07h439.2l129.61,97.85V905.52h-63.53
					c-2.79-21.82-21.27-38.81-43.83-38.81c-10.34,0-20.2,3.75-28.19,10.35h-8.95c-12.26-24.22-49.78-40.82-93.31-40.82
					C1085.6,836.23,1048.08,852.84,1035.82,877.06"/>
			</defs>
			<use xlink:href="#SVGID_135_"  style="overflow:visible;fill:#254A72;"/>
			<clipPath id="SVGID_237_">
				<use xlink:href="#SVGID_135_"  style="overflow:visible;"/>
			</clipPath>
			<g class="st29">
				<g>
					<defs>
						<rect id="SVGID_136_" x="633.06" y="836.23" width="733.88" height="345.23"/>
					</defs>
					<use xlink:href="#SVGID_136_"  style="overflow:visible;fill:#254A72;"/>
					<clipPath id="SVGID_238_">
						<use xlink:href="#SVGID_136_"  style="overflow:visible;"/>
					</clipPath>
					<rect x="633.06" y="836.23" class="st30" width="73.39" height="345.23"/>
					<rect x="706.45" y="836.23" class="st30" width="73.39" height="345.23"/>
					<rect x="779.84" y="836.23" class="st30" width="73.39" height="345.23"/>
					<rect x="853.22" y="836.23" class="st30" width="73.39" height="345.23"/>
					<rect x="926.61" y="836.23" class="st30" width="73.39" height="345.23"/>
					<rect x="1000" y="836.23" class="st30" width="73.39" height="345.23"/>
					<rect x="1073.39" y="836.23" class="st30" width="73.39" height="345.23"/>
					<rect x="1146.78" y="836.23" class="st30" width="73.39" height="345.23"/>
					<rect x="1220.16" y="836.23" class="st30" width="73.39" height="345.23"/>
					<rect x="1293.55" y="836.23" class="st30" width="73.39" height="345.23"/>
				</g>
			</g>
		</g>
		<g>
			<defs>
				<path id="SVGID_133_" d="M735.84,1053.38l56.66-59.08v77.78C772.35,1071.02,752.58,1064.68,735.84,1053.38 M906.94,985.98h36.28
					v86.45h-36.28V985.98z M954.4,985.98h225.87c2.72,28.25,25.07,50.58,53.32,53.29v33.16H954.4V985.98z M803.69,985.87h61.48
					l2.15,0.11h28.44v86.45h-92.07V985.87z M1190.88,980.3c0-26.64,21.69-48.33,48.34-48.33c26.65,0,48.35,21.68,48.35,48.33
					c0,26.66-21.69,48.35-48.35,48.35C1212.57,1028.65,1190.88,1006.97,1190.88,980.3 M1244.78,1075.22v-35.94
					c30.18-2.85,53.97-28.05,53.97-58.98c0-12.98-4.31-24.92-11.4-34.72c8.92-7.14,14.79-17.53,16.26-28.87h52.15v242.3
					L1244.78,1075.22z M719.45,1039.8l-61.08-61.18c-9.12-9.1-14.12-21.24-14.12-34.18c0-12.87,5.09-25.01,14.35-34.19
					c9.1-9.1,21.13-14.08,33.98-14.08l1.16,0.03c13.33,0.3,25.62,5.9,34.61,15.76l62.13,68.27l-63.61,66.33
					C724.13,1044.29,721.7,1042.05,719.45,1039.8 M824.04,931.51c0-11.55,4.5-22.43,12.68-30.6c8.18-8.17,19.04-12.68,30.59-12.68
					h28.44v86.45H865.1C842.06,973.57,824.04,954.61,824.04,931.51 M906.94,888.23h36.28v86.45h-36.28V888.23z M954.4,888.23h79.05
					v86.45H954.4V888.23z M1226.36,911.12c0-9.32,3.81-18.01,10.72-24.41c6.18-5.68,14.18-8.81,22.5-8.81
					c18.32,0,33.22,14.9,33.22,33.22c0,10.23-5.03,19.68-13.04,25.88c-10.65-9.98-24.84-16.2-40.54-16.2
					c-3.7,0-7.31,0.43-10.82,1.09C1227.2,918.48,1226.36,914.89,1226.36,911.12 M1044.62,884.74l0.03-0.05
					c8.47-21.6,44-37.28,84.49-37.28c40.48,0,76.01,15.68,84.49,37.28l1.39,3.54h6.75c-4.18,6.86-6.6,14.64-6.6,22.89
					c0,4.81,1.04,9.43,2.52,13.85c-20.48,8-35.24,27-37.42,49.71h-135.65V884.74z M1035.82,877.06H867.32
					c-14.54,0-28.21,5.66-38.51,15.94c-10.28,10.28-15.95,23.97-15.95,38.51c0,17.62,8.41,33.23,21.32,43.17h-33.63l-63.94-70.25
					c-11.06-12.14-26.19-19.04-42.62-19.42c-16.48-0.31-31.73,5.79-43.28,17.31c-11.39,11.27-17.65,26.23-17.65,42.12
					c0,15.92,6.17,30.87,17.4,42.08l61.07,61.18c2.33,2.33,4.83,4.62,7.57,6.95l-0.13,0.14l4.98,3.79
					c19.71,15.03,43.86,23.68,68.54,24.85v0.16h4.07l1.57,0.07v-0.07h439.2l129.61,97.85V905.52h-63.53
					c-2.79-21.82-21.27-38.81-43.83-38.81c-10.34,0-20.2,3.75-28.19,10.35h-8.95c-12.26-24.22-49.78-40.82-93.31-40.82
					C1085.6,836.23,1048.08,852.84,1035.82,877.06"/>
			</defs>
			<clipPath id="SVGID_239_">
				<use xlink:href="#SVGID_133_"  style="overflow:visible;"/>
			</clipPath>
			<g class="st31">
				<g>
					<defs>
						<rect id="SVGID_134_" x="633.06" y="836.23" width="733.88" height="345.23"/>
					</defs>
					<clipPath id="SVGID_240_">
						<use xlink:href="#SVGID_134_"  style="overflow:visible;"/>
					</clipPath>
				</g>
			</g>
		</g>
	</g>
	<g>
		<polygon class="st32" points="246.51,1288.55 285.82,1288.55 285.82,1388.24 314.25,1388.24 314.25,1288.55 353.56,1288.55 
			353.56,1265.39 246.51,1265.39 		"/>
		<polygon class="st32" points="453.07,1313.82 397.26,1313.82 397.26,1265.39 368.83,1265.39 368.83,1388.24 397.26,1388.24 
			397.26,1337.87 453.07,1337.87 453.07,1388.24 481.5,1388.24 481.5,1265.39 453.07,1265.39 		"/>
		<path class="st32" d="M610.58,1333.57c4.39-6.61,6.58-14.48,6.58-23.61c0-9.12-2.17-17.02-6.49-23.69
			c-4.33-6.67-10.5-11.82-18.52-15.44c-8.01-3.63-17.46-5.44-28.34-5.44h-53.18v122.85h28.43v-34.22h24.74h1.4l23.69,34.22h30.54
			l-27.55-39.49C599.96,1345.24,606.19,1340.18,610.58,1333.57z M581.71,1325.76c-4.45,3.75-10.94,5.61-19.48,5.61h-23.16v-42.82
			h23.16c8.54,0,15.03,1.84,19.48,5.53c4.44,3.69,6.67,8.98,6.67,15.88C588.38,1316.75,586.15,1322.02,581.71,1325.76z"/>
		<rect x="639.62" y="1265.39" class="st32" width="28.43" height="122.85"/>
		<polygon class="st32" points="748.43,1353.14 711.05,1265.39 680.33,1265.39 733.33,1388.24 761.42,1388.24 814.59,1265.39 
			786.33,1265.39 		"/>
		<polygon class="st32" points="853.02,1336.99 910.06,1336.99 910.06,1314.88 853.02,1314.88 853.02,1288.2 917.61,1288.2 
			917.61,1265.39 824.77,1265.39 824.77,1388.24 919.89,1388.24 919.89,1365.42 853.02,1365.42 		"/>
		<path class="st32" d="M1082.39,1324.35c5.15-2.69,9.15-6.38,12.02-11.06c2.87-4.68,4.3-10,4.3-15.97
			c0-9.83-4.01-17.61-12.02-23.34c-8.02-5.73-19.51-8.6-34.49-8.6h-60.02v122.85h63.53c16.03,0,28.22-2.9,36.59-8.69
			c8.36-5.79,12.55-14.07,12.55-24.83c0-7.61-1.99-14.01-5.97-19.22C1094.91,1330.29,1089.41,1326.58,1082.39,1324.35z
			 M1020.44,1286.8h28.25c7.02,0,12.34,1.2,15.97,3.6c3.63,2.4,5.44,6,5.44,10.79c0,4.8-1.81,8.42-5.44,10.88
			c-3.63,2.46-8.95,3.69-15.97,3.69h-28.25V1286.8z M1070.55,1363.14c-3.8,2.46-9.45,3.69-16.93,3.69h-33.17v-30.36h33.17
			c15.09,0,22.64,5.09,22.64,15.27C1076.25,1356.88,1074.35,1360.68,1070.55,1363.14z"/>
		<path class="st32" d="M1208.58,1333.13c0,11.35-2.34,19.69-7.02,25.01s-11.47,7.98-20.36,7.98c-18.25,0-27.38-11-27.38-32.99
			v-67.74h-28.43v68.79c0,18.02,4.88,31.88,14.65,41.59c9.77,9.71,23.43,14.56,40.98,14.56c17.55,0,31.21-4.85,40.98-14.56
			c9.77-9.71,14.66-23.57,14.66-41.59v-68.79h-28.08V1333.13z"/>
		<path class="st32" d="M1364.68,1333.57c4.39-6.61,6.58-14.48,6.58-23.61c0-9.12-2.17-17.02-6.49-23.69
			c-4.33-6.67-10.5-11.82-18.52-15.44c-8.01-3.63-17.46-5.44-28.34-5.44h-53.18v122.85h28.43v-34.22h24.74h1.4l23.69,34.22h30.54
			l-27.55-39.49C1354.06,1345.24,1360.29,1340.18,1364.68,1333.57z M1335.81,1325.76c-4.45,3.75-10.94,5.61-19.48,5.61h-23.16
			v-42.82h23.16c8.54,0,15.03,1.84,19.48,5.53c4.45,3.69,6.67,8.98,6.67,15.88C1342.48,1316.75,1340.26,1322.02,1335.81,1325.76z"/>
		<polygon class="st32" points="1421.98,1336.99 1479.01,1336.99 1479.01,1314.88 1421.98,1314.88 1421.98,1288.2 1486.56,1288.2 
			1486.56,1265.39 1393.72,1265.39 1393.72,1388.24 1488.84,1388.24 1488.84,1365.42 1421.98,1365.42 		"/>
		<path class="st32" d="M1550.09,1265.39l-54.75,122.85h29.13l10.88-26.32h57.04l10.88,26.32h29.83l-54.93-122.85H1550.09z
			 M1544.47,1340.33l19.48-47.03l19.48,47.03H1544.47z"/>
		<path class="st32" d="M1725.41,1265.39v67.74c0,11.35-2.34,19.69-7.02,25.01s-11.47,7.98-20.36,7.98
			c-18.25,0-27.38-11-27.38-32.99v-67.74h-28.43v68.79c0,18.02,4.88,31.88,14.65,41.59c9.77,9.71,23.43,14.56,40.98,14.56
			c17.55,0,31.21-4.85,40.98-14.56c9.77-9.71,14.66-23.57,14.66-41.59v-68.79H1725.41z"/>
	</g>
	<g>
		<polygon class="st33" points="650.29,1563.86 713.03,1563.86 716.6,1546.75 675.55,1546.75 678.35,1532.43 713.25,1532.43 
			716.5,1515.88 681.71,1515.88 684.28,1502.68 723.76,1502.68 727.23,1485.57 665.94,1485.57 		"/>
		<path class="st33" d="M796.9,1485.58h-33.43l-15.66,78.29h22.14l4.14-20.8h11.18l11.63,20.8h23.15l-13.3-23.49
			c6.85-2.38,12.19-6.17,15.99-11.35c3.8-5.17,5.7-11.34,5.7-18.51c0-7.83-2.77-13.94-8.28-18.34
			C814.65,1487.77,806.9,1485.58,796.9,1485.58z M802.05,1522.48c-2.68,2.31-6.48,3.47-11.4,3.47h-13.2l4.7-22.93h11.63
			c3.87,0,6.89,0.81,9.05,2.41c2.16,1.6,3.24,4.01,3.24,7.22C806.08,1516.88,804.74,1520.16,802.05,1522.48z"/>
		<polygon class="st33" points="942.29,1575.05 961.87,1575.05 1019.24,1469.69 999.67,1469.69 		"/>
		<path class="st33" d="M1060.95,1505.87c3.8-2.35,8.2-3.52,13.2-3.52c7.68,0,13.42,3.06,17.22,9.17l15.99-12.75
			c-2.75-4.7-6.93-8.33-12.52-10.9c-5.59-2.57-12-3.87-19.23-3.87c-9.55,0-18.05,2.02-25.5,6.04c-7.46,4.03-13.25,9.62-17.39,16.78
			c-4.14,7.16-6.21,15.21-6.21,24.16c0,6.78,1.6,12.78,4.82,18.01c3.2,5.21,7.79,9.26,13.75,12.13c5.97,2.87,12.9,4.31,20.8,4.31
			c7.31,0,13.8-1.14,19.46-3.41c5.67-2.27,10.63-5.98,14.88-11.13l-13.08-12.87c-5.3,6.04-11.68,9.06-19.13,9.06
			c-5.89,0-10.55-1.6-13.98-4.82c-3.43-3.21-5.14-7.45-5.14-12.75c0-5.14,1.07-9.78,3.19-13.92
			C1054.19,1511.46,1057.15,1508.22,1060.95,1505.87z"/>
		<path class="st33" d="M1177.15,1485.58h-33.43l-15.65,78.29h22.14l4.13-20.8h11.19l11.62,20.8h23.16l-13.31-23.49
			c6.85-2.38,12.19-6.17,15.99-11.35c3.8-5.17,5.7-11.34,5.7-18.51c0-7.83-2.76-13.94-8.28-18.34
			C1194.9,1487.77,1187.14,1485.58,1177.15,1485.58z M1182.3,1522.48c-2.69,2.31-6.49,3.47-11.41,3.47h-13.2l4.7-22.93h11.63
			c3.87,0,6.89,0.81,9.05,2.41c2.16,1.6,3.24,4.01,3.24,7.22C1186.32,1516.89,1184.98,1520.16,1182.3,1522.48z"/>
		<polygon class="st33" points="1320.75,1485.57 1285.19,1530.86 1266.84,1485.57 1248.84,1485.57 1233.18,1563.86 1253.53,1563.86 
			1261.81,1522.59 1276.01,1556.14 1285.74,1556.14 1311.8,1522.59 1303.75,1563.86 1324.21,1563.86 1339.65,1485.57 		"/>
		<path class="st33" d="M900.24,1485.58h-33.1l-15.66,78.29h22.15l4.03-20.47h15.65c7.75,0,14.56-1.34,20.42-4.03
			c5.85-2.68,10.36-6.48,13.53-11.41c3.17-4.92,4.75-10.66,4.75-17.22c0-7.98-2.76-14.17-8.28-18.57
			C918.2,1487.78,910.38,1485.58,900.24,1485.58z M905.67,1522.48c-2.64,2.31-6.43,3.47-11.34,3.47h-13.2l4.58-22.92h11.63
			c3.95,0,6.99,0.8,9.12,2.4c2.12,1.6,3.18,4.01,3.18,7.22C909.63,1516.89,908.31,1520.17,905.67,1522.48z"/>
	</g>
</g>
</svg>
