<svg id="Layer_1" data-name="Layer 1" xmlns="http://www.w3.org/2000/svg" viewBox="0 0 72 72"><defs><style>.cls-1{fill:none;stroke:#0c4ce1;stroke-linecap:round;stroke-linejoin:round;stroke-width:2.5px;}</style></defs><path class="cls-1" d="M59.75,36a23.28,23.28,0,0,1-.59,5.25,7.13,7.13,0,0,0-7,12.21A23.77,23.77,0,0,1,43,58.79a7.12,7.12,0,0,0-14.08,0,23.77,23.77,0,0,1-9.13-5.33,7.13,7.13,0,0,0-7-12.21,23.65,23.65,0,0,1,0-10.5,7.13,7.13,0,0,0,7-12.21A23.77,23.77,0,0,1,29,13.21a7.12,7.12,0,0,0,14.08,0,23.77,23.77,0,0,1,9.13,5.33,7.13,7.13,0,0,0,7,12.21A23.28,23.28,0,0,1,59.75,36Z"/><ellipse class="cls-1" cx="36" cy="36" rx="6.75" ry="6.48"/></svg>