<svg xmlns="http://www.w3.org/2000/svg" xmlns:xlink="http://www.w3.org/1999/xlink" width="300" zoomAndPan="magnify" viewBox="0 0 224.87999 225" height="300" preserveAspectRatio="xMidYMid meet" version="1.0"><defs><clipPath id="f50146e894"><path d="M 0 0.0585938 L 224.761719 0.0585938 L 224.761719 224.9375 L 0 224.9375 Z M 0 0.0585938 " clip-rule="nonzero"/></clipPath><clipPath id="e7abb14444"><path d="M 96 30.335938 L 132 30.335938 L 132 122 L 96 122 Z M 96 30.335938 " clip-rule="nonzero"/></clipPath><clipPath id="658a35470e"><path d="M 36.492188 114 L 188.253906 114 L 188.253906 178.050781 L 36.492188 178.050781 Z M 36.492188 114 " clip-rule="nonzero"/></clipPath><clipPath id="37178c2424"><path d="M 102 156 L 123 156 L 123 178.050781 L 102 178.050781 Z M 102 156 " clip-rule="nonzero"/></clipPath><clipPath id="ad9e337f17"><path d="M 99.769531 151.160156 L 125.109375 151.160156 L 125.109375 194.664062 L 99.769531 194.664062 Z M 99.769531 151.160156 " clip-rule="nonzero"/></clipPath><clipPath id="68772d7a9c"><path d="M 95.945312 153.054688 L 129 153.054688 L 129 194.535156 L 95.945312 194.535156 Z M 95.945312 153.054688 " clip-rule="nonzero"/></clipPath></defs><g clip-path="url(#f50146e894)"><path fill="#ffffff" d="M 0 0.0585938 L 224.878906 0.0585938 L 224.878906 224.941406 L 0 224.941406 Z M 0 0.0585938 " fill-opacity="1" fill-rule="nonzero"/><path fill="#ffffff" d="M 0 0.0585938 L 224.878906 0.0585938 L 224.878906 224.941406 L 0 224.941406 Z M 0 0.0585938 " fill-opacity="1" fill-rule="nonzero"/></g><path fill="#fbaf28" d="M 178.285156 121.445312 L 153.878906 105.6875 L 153.878906 144.375 L 178.285156 164.722656 Z M 178.285156 121.445312 " fill-opacity="1" fill-rule="evenodd"/><path fill="#737373" d="M 156.75 89.277344 L 115.171875 62.425781 L 115.171875 121.425781 L 151.527344 148.574219 L 151.527344 101.375 L 156.75 104.742188 Z M 156.75 89.277344 " fill-opacity="1" fill-rule="evenodd"/><g clip-path="url(#e7abb14444)"><path fill="#fbaf28" d="M 96.277344 53.109375 L 131.539062 30.335938 L 131.539062 70.203125 L 112.820312 58.113281 L 112.820312 109.484375 L 112.4375 109.804688 L 98.625 121.324219 L 98.625 78.988281 L 96.277344 80.484375 Z M 96.277344 53.109375 " fill-opacity="1" fill-rule="evenodd"/></g><path fill="#737373" d="M 67.511719 101.597656 L 96.277344 83.273438 L 96.277344 134.703125 L 73.34375 154.957031 L 73.34375 115.566406 L 67.511719 119.328125 Z M 67.511719 101.597656 " fill-opacity="1" fill-rule="evenodd"/><path fill="#fbaf28" d="M 46.589844 135.636719 L 70.996094 119.878906 L 70.996094 144.367188 L 46.589844 164.722656 Z M 46.589844 135.636719 " fill-opacity="1" fill-rule="evenodd"/><g clip-path="url(#658a35470e)"><path fill="#737373" d="M 112.4375 114.742188 C 137.734375 135.84375 163.039062 156.945312 188.335938 178.050781 C 180.925781 178.050781 173.507812 178.050781 166.097656 178.050781 L 166.097656 172.050781 L 112.4375 127.292969 L 58.773438 172.050781 L 58.773438 178.050781 C 51.363281 178.050781 43.949219 178.050781 36.539062 178.050781 Z M 112.4375 114.742188 " fill-opacity="1" fill-rule="evenodd"/></g><path fill="#a6a6a6" d="M 112.4375 130.078125 L 162.753906 172.050781 L 157.367188 172.050781 L 112.4375 134.574219 L 67.507812 172.050781 L 62.121094 172.050781 Z M 112.4375 130.078125 " fill-opacity="1" fill-rule="evenodd"/><g clip-path="url(#37178c2424)"><path fill="#737373" d="M 111.523438 156.289062 C 106.425781 156.75 102.390625 161.035156 102.320312 166.230469 L 111.523438 166.230469 Z M 122.550781 166.230469 C 122.488281 161.035156 118.445312 156.75 113.351562 156.289062 L 113.351562 166.230469 Z M 113.351562 178.050781 L 122.550781 178.050781 L 122.550781 168.0625 L 113.351562 168.0625 Z M 102.320312 178.050781 L 111.523438 178.050781 L 111.523438 168.0625 L 102.320312 168.0625 Z M 102.320312 178.050781 " fill-opacity="1" fill-rule="evenodd"/></g><g clip-path="url(#ad9e337f17)"><path fill="#ffffff" d="M 99.769531 151.160156 L 125.109375 151.160156 L 125.109375 194.664062 L 99.769531 194.664062 Z M 99.769531 151.160156 " fill-opacity="1" fill-rule="nonzero"/></g><g clip-path="url(#68772d7a9c)"><path fill="#fbaf28" d="M 123.53125 176.839844 L 101.257812 176.839844 L 101.84375 180.230469 C 102.148438 181.996094 110.605469 182.414062 110.933594 181.296875 L 111.320312 179.699219 C 111.488281 179.015625 113.304688 179.015625 113.46875 179.699219 L 113.855469 181.296875 C 114.1875 182.414062 122.644531 181.992188 122.945312 180.230469 Z M 101.453125 176.429688 C 101.101562 176.429688 100.847656 175.996094 100.644531 175.644531 C 100.539062 175.4375 100.320312 175.40625 100.113281 175.40625 C 100.121094 175.496094 100.125 175.585938 100.132812 175.675781 C 100.289062 177.4375 100.671875 179.476562 101.234375 181.171875 L 102.324219 181.808594 C 103.085938 184.769531 105.664062 190.066406 108.625 191.652344 C 109.984375 192.378906 114.804688 192.378906 116.164062 191.652344 C 119.125 190.066406 121.707031 184.773438 122.46875 181.808594 L 123.554688 181.171875 C 124.117188 179.476562 124.503906 177.4375 124.660156 175.675781 C 124.667969 175.585938 124.671875 175.496094 124.675781 175.40625 C 124.46875 175.40625 124.25 175.4375 124.148438 175.644531 C 123.945312 175.996094 123.691406 176.429688 123.335938 176.429688 Z M 107.613281 193.6875 C 104.21875 191.628906 101.734375 187.257812 100.269531 183.359375 L 99.28125 182.78125 C 98.355469 180.25 97.875 177.597656 97.726562 175.40625 L 96.128906 175.40625 C 96.03125 175.261719 95.972656 175.078125 95.949219 174.84375 C 95.914062 173.789062 95.953125 172.75 96.066406 171.675781 C 96.296875 169.425781 97.269531 170.109375 97.320312 168.980469 C 97.734375 164.113281 100.5 159.84375 104.253906 157.242188 C 105.363281 164.226562 107.488281 169.621094 107.488281 169.621094 C 106.832031 164.484375 105.921875 159.992188 105.816406 156.574219 C 105.800781 156.003906 105.929688 155.035156 106.527344 154.769531 C 110.238281 153.125 114.550781 153.125 118.261719 154.769531 C 118.859375 155.035156 118.992188 156.003906 118.972656 156.574219 C 118.871094 159.992188 117.957031 164.484375 117.300781 169.621094 C 117.300781 169.621094 119.429688 164.226562 120.539062 157.242188 C 124.292969 159.84375 127.054688 164.113281 127.472656 168.980469 C 127.523438 170.109375 128.496094 169.425781 128.726562 171.675781 C 128.835938 172.75 128.878906 173.789062 128.84375 174.84375 C 128.820312 175.078125 128.757812 175.261719 128.664062 175.40625 L 127.066406 175.40625 C 126.917969 177.597656 126.4375 180.25 125.511719 182.78125 L 124.523438 183.359375 C 123.054688 187.261719 120.570312 191.628906 117.179688 193.6875 C 115.566406 194.664062 109.226562 194.664062 107.613281 193.6875 " fill-opacity="1" fill-rule="evenodd"/></g></svg>