<?xml version="1.0" encoding="utf-8"?><svg version="1.1" id="Layer_1" xmlns="http://www.w3.org/2000/svg" xmlns:xlink="http://www.w3.org/1999/xlink" x="0px" y="0px" viewBox="0 0 122.88 83.03" style="enable-background:new 0 0 122.88 83.03" xml:space="preserve"><style type="text/css">.st0{fill-rule:evenodd;clip-rule:evenodd;}</style><g><path class="st0" d="M0,83.03h23.34V54.25c0-0.19,0.03-0.38,0.08-0.56C4,56.45,4.96,65.41,0.03,83.01L0,83.03L0,83.03z M65.53,83.03h0.57h14.4v-0.03h2.92v0.01l0,0h21.54V64.55c0-0.22,0.05-0.45,0.15-0.64L94.2,63.99l-10.44-0.07 c-2.74-5.46-7.27-8.75-17.73-10.24c0.05,0.19,0.08,0.38,0.08,0.56v26.71c-0.17,0.67-0.36,1.35-0.56,2.06L65.53,83.03L65.53,83.03z M84.51,45.71v2.32l0.79,1.08c0.12,0.17,0.19,0.36,0.19,0.55c0.29,4.04,1.36,6.56,2.98,8.12c1.57,1.53,3.72,2.24,6.16,2.63 c2.65-0.43,4.71-1.55,6.19-3.27c1.53-1.81,2.46-4.32,2.75-7.5c0.02-0.15,0.07-0.31,0.14-0.45l0.71-1.17l0.02-2.41h2.08l-0.02,2.63 c0.02,0.21-0.03,0.41-0.15,0.62l-0.74,1.2c-0.36,3.49-1.45,6.31-3.22,8.41c-1.84,2.15-4.37,3.51-7.59,4.01 c-0.1,0.02-0.22,0.02-0.34,0c-2.89-0.45-5.49-1.29-7.47-3.23c-1.93-1.89-3.24-4.75-3.58-9.19l-0.76-1.05 c-0.17-0.19-0.26-0.43-0.26-0.69V45.7h2.1L84.51,45.71L84.51,45.71z M94.08,29.78c1,0,1.98,0.1,2.91,0.29l-0.17,8.38L99.86,31 c4.28,1.91,7.47,5.88,8.26,10.65h1.65v1.96h-1.46v0.03H79.83v-0.03h-1.19v-1.96h1.38c0.83-4.92,4.18-9,8.69-10.82l2.67,7.5 L91.65,30c0.79-0.14,1.58-0.21,2.41-0.21L94.08,29.78L94.08,29.78z M92.61,76.32h3.18v3.18h-3.18V76.32L92.61,76.32z M92.61,68.46 h3.18v3.18h-3.18V68.46L92.61,68.46z M107.91,83.02h14.97c-3.18-11.29-2.55-17.03-15-18.81c0.03,0.12,0.05,0.24,0.05,0.36v18.46 L107.91,83.02L107.91,83.02z M29.59,24.84v3.62l1.23,1.69c0.19,0.27,0.3,0.56,0.3,0.86c0.46,6.3,2.12,10.22,4.64,12.66 c2.44,2.39,5.79,3.49,9.6,4.1c4.13-0.67,7.35-2.41,9.66-5.1c2.39-2.82,3.84-6.73,4.29-11.7c0.03-0.24,0.11-0.48,0.21-0.7l1.1-1.82 l0.03-3.76h3.25l-0.03,4.1c0.03,0.32-0.05,0.64-0.24,0.97l-1.15,1.88c-0.56,5.45-2.25,9.85-5.02,13.12 c-2.87,3.35-6.81,5.47-11.83,6.25c-0.16,0.03-0.35,0.03-0.54,0c-4.51-0.7-8.56-2.01-11.64-5.04c-3-2.95-5.04-7.4-5.58-14.33 l-1.18-1.64c-0.27-0.3-0.4-0.67-0.4-1.07v-4.13h3.27L29.59,24.84L29.59,24.84z M44.51,0c1.56,0,3.09,0.16,4.53,0.46l-0.27,13.07 L53.52,1.9c6.68,2.98,11.64,9.18,12.88,16.61h2.58v3.06h-2.28v0.05h-44.4v-0.05h-1.85v-3.06h2.15c1.29-7.67,6.52-14.03,13.55-16.87 l4.16,11.7l0.43-12.98c1.23-0.21,2.47-0.32,3.76-0.32L44.51,0L44.51,0z M42.23,72.57h4.96v4.96h-4.96V72.57L42.23,72.57z M42.23,60.31h4.96v4.96h-4.96V60.31L42.23,60.31z M27.9,83.01h33.59V54.22c0-0.35,0.08-0.7,0.24-0.99L44.7,53.33l-17.04-0.11 c0.16,0.3,0.24,0.64,0.24,0.99V83.01L27.9,83.01L27.9,83.01z"/></g></svg>