<svg id="Capa_1" enable-background="new 0 0 512 512" height="512" viewBox="0 0 512 512" width="512" xmlns="http://www.w3.org/2000/svg"><g><g><path d="m476.013 432.015h-96.361c-6.903 0-12.499-5.596-12.499-12.499v-14.298c0-6.903 5.596-12.499 12.499-12.499h96.361c6.903 0 12.499 5.596 12.499 12.499v14.298c0 6.903-5.596 12.499-12.499 12.499z" fill="#eab14d"/><path d="m476.013 392.72h-19.98c6.903 0 12.499 5.596 12.499 12.499v14.298c0 6.903-5.596 12.499-12.499 12.499h19.98c6.903 0 12.499-5.596 12.499-12.499v-14.298c0-6.904-5.596-12.499-12.499-12.499z" fill="#e49542"/><path d="m492.001 353.424h-96.361c-6.903 0-12.499-5.596-12.499-12.499v-14.298c0-6.903 5.596-12.499 12.499-12.499h96.361c6.903 0 12.499 5.596 12.499 12.499v14.298c0 6.903-5.596 12.499-12.499 12.499z" fill="#eab14d"/><path d="m492.001 314.128h-19.98c6.903 0 12.499 5.596 12.499 12.499v14.298c0 6.903-5.596 12.499-12.499 12.499h19.98c6.903 0 12.499-5.596 12.499-12.499v-14.298c0-6.903-5.596-12.499-12.499-12.499z" fill="#e49542"/><path d="m462.024 274.832h-96.361c-6.903 0-12.499-5.596-12.499-12.499v-14.298c0-6.903 5.596-12.499 12.499-12.499h96.361c6.903 0 12.499 5.596 12.499 12.499v14.298c0 6.904-5.596 12.499-12.499 12.499z" fill="#eab14d"/><path d="m462.024 235.537h-19.98c6.903 0 12.499 5.596 12.499 12.499v14.298c0 6.903-5.596 12.499-12.499 12.499h19.98c6.903 0 12.499-5.596 12.499-12.499v-14.298c0-6.904-5.596-12.499-12.499-12.499z" fill="#e49542"/><path d="m476.013 392.719h-96.361c-6.903 0-12.499-5.596-12.499-12.499v-14.298c0-6.903 5.596-12.499 12.499-12.499h96.361c6.903 0 12.499 5.596 12.499 12.499v14.298c0 6.904-5.596 12.499-12.499 12.499z" fill="#f6e266"/><path d="m476.013 353.424h-19.98c6.903 0 12.499 5.596 12.499 12.499v14.298c0 6.903-5.596 12.499-12.499 12.499h19.98c6.903 0 12.499-5.596 12.499-12.499v-14.298c0-6.903-5.596-12.499-12.499-12.499z" fill="#ecbe6b"/><path d="m476.013 314.128h-96.361c-6.903 0-12.499-5.596-12.499-12.499v-14.298c0-6.903 5.596-12.499 12.499-12.499h96.361c6.903 0 12.499 5.596 12.499 12.499v14.298c0 6.903-5.596 12.499-12.499 12.499z" fill="#f6e266"/><path d="m476.013 274.832h-19.98c6.903 0 12.499 5.596 12.499 12.499v14.298c0 6.903-5.596 12.499-12.499 12.499h19.98c6.903 0 12.499-5.596 12.499-12.499v-14.298c0-6.903-5.596-12.499-12.499-12.499z" fill="#ecbe6b"/><path d="m476.013 235.537h-96.361c-6.903 0-12.499-5.596-12.499-12.499v-14.298c0-6.903 5.596-12.499 12.499-12.499h96.361c6.903 0 12.499 5.596 12.499 12.499v14.298c0 6.903-5.596 12.499-12.499 12.499z" fill="#f6e266"/><path d="m476.013 196.241h-19.98c6.903 0 12.499 5.596 12.499 12.499v14.298c0 6.903-5.596 12.499-12.499 12.499h19.98c6.903 0 12.499-5.596 12.499-12.499v-14.298c0-6.903-5.596-12.499-12.499-12.499z" fill="#ecbe6b"/></g><g><path d="m105.36 432.015h-85.361c-6.903 0-12.499-5.596-12.499-12.499v-14.298c0-6.903 5.596-12.499 12.499-12.499h85.361c6.903 0 12.499 5.596 12.499 12.499v14.298c0 6.903-5.596 12.499-12.499 12.499z" fill="#eab14d"/><path d="m105.36 392.72h-37.703v39.296h37.703c6.903 0 12.499-5.596 12.499-12.499v-14.298c0-6.904-5.596-12.499-12.499-12.499z" fill="#e49542"/><path d="m121.348 353.424h-85.361c-6.903 0-12.499-5.596-12.499-12.499v-14.298c0-6.903 5.596-12.499 12.499-12.499h85.361c6.903 0 12.499 5.596 12.499 12.499v14.298c-.001 6.903-5.596 12.499-12.499 12.499z" fill="#eab14d"/><path d="m121.348 314.128h-53.691v39.296h53.691c6.903 0 12.499-5.596 12.499-12.499v-14.298c-.001-6.903-5.596-12.499-12.499-12.499z" fill="#e49542"/><path d="m121.348 274.832h-85.361c-6.903 0-12.499-5.596-12.499-12.499v-14.298c0-6.903 5.596-12.499 12.499-12.499h85.361c6.903 0 12.499 5.596 12.499 12.499v14.298c-.001 6.904-5.596 12.499-12.499 12.499z" fill="#eab14d"/><path d="m121.348 235.537h-53.691v39.296h53.691c6.903 0 12.499-5.596 12.499-12.499v-14.298c-.001-6.903-5.596-12.499-12.499-12.499z" fill="#e49542"/><path d="m105.36 392.72h-85.361c-6.903 0-12.499-5.596-12.499-12.499v-14.298c0-6.903 5.596-12.499 12.499-12.499h85.361c6.903 0 12.499 5.596 12.499 12.499v14.298c0 6.903-5.596 12.499-12.499 12.499z" fill="#f6e266"/><path d="m105.36 353.424h-37.703v39.296h37.703c6.903 0 12.499-5.596 12.499-12.499v-14.298c0-6.903-5.596-12.499-12.499-12.499z" fill="#ecbe6b"/><path d="m105.36 314.128h-85.361c-6.903 0-12.499-5.596-12.499-12.499v-14.298c0-6.903 5.596-12.499 12.499-12.499h85.361c6.903 0 12.499 5.596 12.499 12.499v14.298c0 6.903-5.596 12.499-12.499 12.499z" fill="#f6e266"/><path d="m105.36 274.832h-37.695c-.001.106-.008.21-.008.316v38.98h37.703c6.903 0 12.499-5.596 12.499-12.499v-14.299c0-6.902-5.596-12.498-12.499-12.498z" fill="#ecbe6b"/></g><path d="m414.221 460.151h-316.441c-4.465 0-8.084-3.619-8.084-8.084v-392.135c0-4.465 3.619-8.084 8.084-8.084h316.441c4.465 0 8.084 3.619 8.084 8.084v392.135c0 4.465-3.62 8.084-8.084 8.084z" fill="#ecf4ff"/><path d="m414.221 51.848h-21.823c4.465 0 8.084 3.619 8.084 8.084v392.135c0 4.465-3.619 8.084-8.084 8.084h21.823c4.465 0 8.084-3.62 8.084-8.084v-392.135c0-4.464-3.62-8.084-8.084-8.084z" fill="#ddeafb"/><g><path d="m180.988 414.295h-46.755c-3.035 0-5.496-2.461-5.496-5.496v-71.661c0-3.035 2.461-5.496 5.496-5.496h46.755c3.035 0 5.496 2.461 5.496 5.496v71.661c0 3.036-2.461 5.496-5.496 5.496z" fill="#78c2a4"/><path d="m180.988 331.641h-17.466c3.036 0 5.496 2.46 5.496 5.496v71.662c0 3.035-2.461 5.496-5.496 5.496h17.466c3.035 0 5.496-2.461 5.496-5.496v-71.662c0-3.035-2.461-5.496-5.496-5.496z" fill="#66b394"/></g><g><path d="m279.377 414.295h-46.754c-3.035 0-5.496-2.461-5.496-5.496v-91.661c0-3.035 2.461-5.496 5.496-5.496h46.754c3.035 0 5.496 2.461 5.496 5.496v91.661c.001 3.036-2.46 5.496-5.496 5.496z" fill="#f6e266"/><path d="m279.377 311.641h-17.466c3.036 0 5.496 2.46 5.496 5.496v91.662c0 3.035-2.461 5.496-5.496 5.496h17.466c3.035 0 5.496-2.461 5.496-5.496v-91.662c.001-3.035-2.46-5.496-5.496-5.496z" fill="#ecbe6b"/></g><path d="m377.767 414.295h-46.755c-3.035 0-5.496-2.461-5.496-5.496v-131.661c0-3.035 2.461-5.496 5.496-5.496h46.755c3.035 0 5.496 2.461 5.496 5.496v131.661c0 3.036-2.461 5.496-5.496 5.496z" fill="#dd636e"/><path d="m377.767 271.641h-17.466c3.036 0 5.496 2.46 5.496 5.496v131.662c0 3.035-2.461 5.496-5.496 5.496h17.466c3.035 0 5.496-2.461 5.496-5.496v-131.662c0-3.035-2.461-5.496-5.496-5.496z" fill="#c63d4f"/><g><path d="m165.788 133.562c-1.036-.366-2.089-.745-3.144-1.134v-21.263c5.146.834 8.972 2.665 9.092 2.722 3.699 1.835 8.187.338 10.039-3.354 1.857-3.703.362-8.21-3.341-10.067-.417-.208-6.978-3.435-15.79-4.411v-2.676c0-4.143-3.358-7.5-7.5-7.5s-7.5 3.357-7.5 7.5v3.721c-.26.072-.521.138-.781.217-8.321 2.507-14.534 9.604-16.214 18.52-1.546 8.203 1.131 16.152 6.987 20.745 2.626 2.061 5.808 3.951 10.008 5.902v27.519c-2.609-.491-4.758-1.529-8-3.648-3.467-2.27-8.115-1.297-10.382 2.171-2.267 3.467-1.295 8.115 2.171 10.382 6.146 4.02 10.669 5.634 16.21 6.213v3.625c0 4.143 3.358 7.5 7.5 7.5s7.5-3.357 7.5-7.5v-4.354c11.305-3.103 18.548-12.857 20.166-22.482 2.12-12.609-4.72-24.001-17.021-28.348zm-18.894-8.784c-1.411-1.106-2.001-3.526-1.504-6.164.289-1.535 1.024-3.245 2.255-4.63v11.352c-.259-.185-.512-.371-.751-.558zm21.124 34.642c-.532 3.163-2.353 6.471-5.373 8.621v-19.526c5.928 3.047 5.771 8.533 5.373 10.905z"/><path d="m366.098 105.761c4.143 0 7.5-3.357 7.5-7.5s-3.357-7.5-7.5-7.5h-87.405c-4.143 0-7.5 3.357-7.5 7.5s3.357 7.5 7.5 7.5z"/><path d="m241.193 134.861c0 4.143 3.358 7.5 7.5 7.5h117.405c4.143 0 7.5-3.357 7.5-7.5s-3.357-7.5-7.5-7.5h-117.405c-4.142 0-7.5 3.357-7.5 7.5z"/><path d="m248.693 178.959h117.405c4.143 0 7.5-3.357 7.5-7.5s-3.357-7.5-7.5-7.5h-117.405c-4.142 0-7.5 3.357-7.5 7.5s3.358 7.5 7.5 7.5z"/><path d="m134.233 324.142c-7.167 0-12.997 5.83-12.997 12.996v71.661c0 7.166 5.83 12.996 12.997 12.996h46.754c7.166 0 12.996-5.83 12.996-12.996v-71.661c0-7.166-5.83-12.996-12.996-12.996zm44.751 82.653h-42.747v-67.653h42.747z"/><path d="m219.626 317.138v91.661c0 7.166 5.83 12.996 12.996 12.996h46.755c7.166 0 12.996-5.83 12.996-12.996v-91.661c0-7.166-5.83-12.996-12.996-12.996h-46.755c-7.165 0-12.996 5.83-12.996 12.996zm15 2.004h42.747v87.653h-42.747z"/><path d="m495.279 306.921c.465-1.688.733-3.458.733-5.292v-14.299c0-9.237-6.303-17.008-14.828-19.296.539-1.808.839-3.719.839-5.7v-14.299c0-1.981-.3-3.892-.839-5.7 8.525-2.288 14.828-10.061 14.828-19.298v-14.297c0-11.027-8.972-19.999-19.999-19.999h-46.208v-128.808c0-8.593-6.991-15.584-15.585-15.584h-208.543c-4.142 0-7.5 3.357-7.5 7.5s3.358 7.5 7.5 7.5h208.543c.322 0 .585.262.585.584v392.135c0 .322-.263.584-.585.584h-316.44c-.322 0-.584-.262-.584-.584 0-42.704 0-347.738 0-392.135 0-.322.262-.584.584-.584h77.91c4.142 0 7.5-3.357 7.5-7.5s-3.358-7.5-7.5-7.5h-77.91c-8.593 0-15.584 6.991-15.584 15.584v168.104h-46.209c-11.027 0-19.999 8.972-19.999 19.999v14.299c0 1.834.269 3.603.733 5.291-9.47 1.57-16.721 9.796-16.721 19.704v14.299c0 9.909 7.251 18.135 16.721 19.707-.465 1.688-.733 3.458-.733 5.292v14.298c0 1.834.269 3.603.733 5.292-9.47 1.57-16.721 9.795-16.721 19.704v14.299c0 4.728 1.658 9.071 4.411 12.499-2.753 3.427-4.411 7.77-4.411 12.498v14.298c0 11.028 8.971 20 19.999 20h11.989c4.142 0 7.5-3.357 7.5-7.5s-3.358-7.5-7.5-7.5h-11.989c-2.756 0-4.999-2.243-4.999-5v-14.298c0-2.757 2.242-4.999 4.999-4.999h62.197v24.297h-20.22c-4.142 0-7.5 3.357-7.5 7.5s3.358 7.5 7.5 7.5h20.22v12.552c0 8.593 6.991 15.584 15.584 15.584h316.44c8.594 0 15.585-6.991 15.585-15.584v-12.552h46.208c11.027 0 19.999-8.972 19.999-20v-14.298c0-4.728-1.658-9.071-4.412-12.499 2.754-3.427 4.412-7.771 4.412-12.499v-14.299c0-1.834-.269-3.603-.733-5.291 9.47-1.572 16.721-9.798 16.721-19.707v-14.298c0-9.906-7.251-18.133-16.721-19.704zm-464.291 34.004v-14.298c0-2.757 2.243-4.999 4.999-4.999h46.208v24.296h-46.208c-2.757 0-4.999-2.242-4.999-4.999zm0-92.89c0-2.757 2.243-4.999 4.999-4.999h46.208v24.296h-46.208c-2.756 0-4.999-2.242-4.999-4.998zm-15.988 53.594v-14.299c0-2.756 2.242-4.998 4.999-4.998h15.988 46.208v24.296c-14.982 0-47.392 0-62.197 0-2.756 0-4.998-2.242-4.998-4.999zm4.999 83.59c-2.756 0-4.999-2.242-4.999-4.998v-14.299c0-2.756 2.242-4.998 4.999-4.998h62.197v24.295zm461.013-19.297v14.299c0 2.756-2.242 4.998-4.999 4.998h-46.208v-24.295h46.208c2.757 0 4.999 2.242 4.999 4.998zm-13.989-117.887v14.299c0 2.756-2.242 4.998-4.999 4.998h-32.219v-24.295h32.219c2.757 0 4.999 2.243 4.999 4.998zm-37.218 34.297h46.208c2.757 0 4.999 2.242 4.999 4.998v14.299c0 2.757-2.242 4.999-4.999 4.999h-46.208zm46.208-78.592c2.757 0 4.999 2.242 4.999 4.999v14.298c0 2.757-2.242 5-4.999 5-7.755 0-34.321 0-46.208 0v-24.297zm4.999 215.776c0 2.757-2.242 5-4.999 5h-46.208v-24.297h46.208c2.757 0 4.999 2.242 4.999 4.999zm15.988-78.591c0 2.757-2.242 4.999-4.999 4.999-14.745 0-47.186 0-62.196 0v-24.296h62.196c2.757 0 4.999 2.242 4.999 4.999z"/><path d="m383.263 355.475c4.143 0 7.5-3.357 7.5-7.5v-70.837c0-7.166-5.83-12.996-12.996-12.996h-46.755c-7.166 0-12.996 5.83-12.996 12.996v131.661c0 7.166 5.83 12.996 12.996 12.996h46.755c7.166 0 12.996-5.83 12.996-12.996v-30.837c0-4.143-3.357-7.5-7.5-7.5s-7.5 3.357-7.5 7.5v28.833h-42.747v-127.653h42.747v68.833c0 4.142 3.358 7.5 7.5 7.5z"/></g></g></svg>