<svg height="396pt" viewBox="0 -2 396.15488 396" width="396pt" xmlns="http://www.w3.org/2000/svg"><path d="m395.945312 188.191406c0 86.714844-70.296874 157.011719-157.011718 157.011719s-157.011719-70.296875-157.011719-157.011719c0-86.71875 70.296875-157.015625 157.011719-157.015625s157.011718 70.296875 157.011718 157.015625zm0 0" fill="#efefd2"/><path d="m304.242188 386.164062h-178.40625c-16.714844 0-30.261719-13.550781-30.261719-30.265624v-263.28125h238.933593v263.28125c0 16.714843-13.550781 30.265624-30.265624 30.265624zm0 0" fill="#fff"/><path d="m304.242188 392.988281h-178.402344c-20.453125 0-37.089844-16.636719-37.089844-37.089843v-263.28125c0-3.773438 3.050781-6.828126 6.824219-6.828126h238.933593c3.773438 0 6.828126 3.054688 6.828126 6.828126v263.28125c-.003907 20.453124-16.644532 37.089843-37.09375 37.089843zm-201.84375-293.546875v256.457032c0 12.925781 10.515624 23.4375 23.441406 23.4375h178.398437c12.925781 0 23.441407-10.511719 23.441407-23.4375v-256.457032zm0 0" fill="#4c241d"/><path d="m6.828125 72.136719v91.25c0 13.699219 11.101563 24.804687 24.800781 24.804687h123.40625c16.175782 0 29.285156-13.113281 29.285156-29.285156v-86.769531zm0 0" fill="#fff"/><path d="m155.035156 195.015625h-123.40625c-17.441406 0-31.628906-14.183594-31.628906-31.625v-91.253906c0-3.773438 3.054688-6.828125 6.828125-6.828125h177.492187c3.773438 0 6.828126 3.054687 6.828126 6.828125v86.765625c0 19.914062-16.203126 36.113281-36.113282 36.113281zm-141.382812-116.050781v84.425781c0 9.914063 8.0625 17.972656 17.972656 17.972656h123.410156c12.386719 0 22.457032-10.074219 22.457032-22.460937v-79.9375zm0 0" fill="#4c241d"/><path d="m162.617188 24.351562h-134.085938c-11.988281 0-21.703125 9.714844-21.703125 21.703126v26.082031h177.492187v-26.082031c0-11.988282-9.714843-21.703126-21.703124-21.703126zm0 0" fill="#fc8c29"/><g fill="#4c241d"><path d="m184.320312 78.964844h-177.492187c-3.773437 0-6.828125-3.054688-6.828125-6.828125v-26.078125c0-15.734375 12.800781-28.535156 28.535156-28.535156h134.078125c15.734375 0 28.535157 12.800781 28.535157 28.535156v26.078125c0 3.773437-3.054688 6.828125-6.828126 6.828125zm-170.667968-13.65625h163.839844v-19.25c0-8.210938-6.671876-14.882813-14.878907-14.882813h-134.078125c-8.207031 0-14.882812 6.671875-14.882812 14.882813zm0 0"/><path d="m57.714844 43.171875c-3.773438 0-6.828125-3.054687-6.828125-6.828125v-29.441406c0-3.773438 3.054687-6.824219 6.828125-6.824219 3.773437 0 6.824218 3.050781 6.824218 6.824219v29.441406c0 3.773438-3.050781 6.828125-6.824218 6.828125zm0 0"/><path d="m133.433594 43.171875c-3.773438 0-6.828125-3.054687-6.828125-6.828125v-29.441406c0-3.773438 3.054687-6.824219 6.828125-6.824219 3.773437 0 6.828125 3.050781 6.828125 6.824219v29.441406c0 3.773438-3.054688 6.828125-6.828125 6.828125zm0 0"/><path d="m143.359375 256.457031c-1.808594 0-3.539063-.714843-4.824219-2l-13.65625-13.652343c-2.664062-2.667969-2.664062-6.988282 0-9.65625 2.667969-2.664063 6.988282-2.664063 9.652344 0l8.089844 8.085937 15.757812-21.003906c2.257813-3.023438 6.546875-3.621094 9.554688-1.367188 3.019531 2.257813 3.632812 6.539063 1.367187 9.550781l-20.480469 27.308594c-1.1875 1.585938-3 2.574219-4.972656 2.714844-.167968.011719-.328125.019531-.488281.019531zm0 0"/><path d="m143.359375 345.203125c-1.808594 0-3.539063-.714844-4.824219-2l-13.65625-13.652344c-2.664062-2.667969-2.664062-6.988281 0-9.652343 2.667969-2.667969 6.988282-2.667969 9.652344 0l8.089844 8.085937 15.757812-21.007813c2.257813-3.023437 6.546875-3.621093 9.554688-1.367187 3.019531 2.257813 3.632812 6.539063 1.367187 9.554687l-20.480469 27.304688c-1.1875 1.585938-3 2.574219-4.972656 2.714844-.167968.011718-.328125.019531-.488281.019531zm0 0"/><path d="m238.933594 167.710938h-27.308594c-3.773438 0-6.824219-3.054688-6.824219-6.828126 0-3.773437 3.050781-6.828124 6.824219-6.828124h27.308594c3.773437 0 6.828125 3.054687 6.828125 6.828124 0 3.773438-3.054688 6.828126-6.828125 6.828126zm0 0"/><path d="m293.546875 256.457031h-102.398437c-3.773438 0-6.828126-3.054687-6.828126-6.828125 0-3.773437 3.054688-6.824218 6.828126-6.824218h102.398437c3.773437 0 6.828125 3.050781 6.828125 6.824218 0 3.773438-3.054688 6.828125-6.828125 6.828125zm0 0"/></g><path d="m389.328125 95.835938c0 40.234374-32.617187 72.851562-72.855469 72.851562-40.234375 0-72.851562-32.617188-72.851562-72.851562 0-40.234376 32.617187-72.851563 72.851562-72.851563 40.238282 0 72.855469 32.617187 72.855469 72.851563zm0 0" fill="#9dc1e4"/><path d="m316.472656 175.519531c-43.933594 0-79.679687-35.746093-79.679687-79.683593 0-43.933594 35.746093-79.679688 79.679687-79.679688 43.9375 0 79.683594 35.746094 79.683594 79.679688 0 43.9375-35.75 79.683593-79.683594 79.683593zm0-145.707031c-36.40625 0-66.027344 29.617188-66.027344 66.027344 0 36.40625 29.621094 66.027344 66.027344 66.027344 36.410156 0 66.027344-29.621094 66.027344-66.027344 0-36.410156-29.621094-66.027344-66.027344-66.027344zm0 0" fill="#4c241d"/><path d="m293.546875 345.203125h-102.398437c-3.773438 0-6.828126-3.054687-6.828126-6.828125s3.054688-6.824219 6.828126-6.824219h102.398437c3.773437 0 6.828125 3.050781 6.828125 6.824219s-3.054688 6.828125-6.828125 6.828125zm0 0" fill="#4c241d"/><path d="m367.480469 95.835938c0 28.171874-22.835938 51.007812-51.007813 51.007812-28.167968 0-51.003906-22.835938-51.003906-51.007812 0-28.167969 22.835938-51.007813 51.003906-51.007813 28.171875 0 51.007813 22.839844 51.007813 51.007813zm0 0" fill="#fff"/><path d="m316.472656 153.671875c-31.886718 0-57.832031-25.949219-57.832031-57.835937 0-31.886719 25.945313-57.832032 57.832031-57.832032 31.890625 0 57.835938 25.945313 57.835938 57.832032 0 31.886718-25.945313 57.835937-57.835938 57.835937zm0-102.015625c-24.359375 0-44.179687 19.820312-44.179687 44.179688 0 24.363281 19.820312 44.179687 44.179687 44.179687 24.363282 0 44.183594-19.816406 44.183594-44.179687 0-24.359376-19.824219-44.179688-44.183594-44.179688zm0 0" fill="#4c241d"/><path d="m330.378906 116.578125c-1.027344 0-2.066406-.234375-3.046875-.722656l-18.542969-9.273438c-2.3125-1.160156-3.773437-3.519531-3.773437-6.105469v-27.828124c0-3.773438 3.050781-6.824219 6.824219-6.824219 3.773437 0 6.828125 3.050781 6.828125 6.824219v23.609374l14.773437 7.386719c3.371094 1.683594 4.738282 5.785157 3.050782 9.160157-1.199219 2.390624-3.605469 3.773437-6.113282 3.773437zm0 0" fill="#4c241d"/><path d="m125.984375 58.484375c-20.566406 0-37.234375 16.667969-37.234375 37.234375s37.234375 65.164062 37.234375 65.164062 37.234375-44.597656 37.234375-65.164062-16.667969-37.234375-37.234375-37.234375zm0 50.179687c-7.148437 0-12.941406-5.796874-12.941406-12.945312s5.792969-12.941406 12.941406-12.941406 12.945313 5.792968 12.945313 12.941406c-.003907 7.148438-5.796876 12.945312-12.945313 12.945312zm0 0" fill="#bd53b5"/><path d="m125.980469 167.710938c-2.027344 0-3.945313-.902344-5.238281-2.457032-3.972657-4.757812-38.820313-47.144531-38.820313-69.539062 0-24.292969 19.765625-44.058594 44.058594-44.058594 24.300781 0 44.066406 19.765625 44.066406 44.058594 0 22.394531-34.851563 64.78125-38.828125 69.539062-1.296875 1.554688-3.210938 2.457032-5.238281 2.457032zm0-102.402344c-16.765625 0-30.40625 13.640625-30.40625 30.40625 0 11.601562 16.949219 37.101562 30.40625 54.300781 13.460937-17.207031 30.414062-42.714844 30.414062-54.300781 0-16.765625-13.648437-30.40625-30.414062-30.40625zm0 50.183594c-10.898438 0-19.765625-8.875-19.765625-19.773438 0-10.902344 8.867187-19.769531 19.765625-19.769531 10.902343 0 19.773437 8.867187 19.773437 19.769531 0 10.898438-8.871094 19.773438-19.773437 19.773438zm0-25.886719c-3.375 0-6.113281 2.738281-6.113281 6.113281 0 3.371094 2.738281 6.117188 6.113281 6.117188s6.121093-2.746094 6.121093-6.117188c0-3.375-2.75-6.113281-6.121093-6.113281zm0 0" fill="#4c241d"/></svg>