<svg height="512" viewBox="0 0 58 58" width="512" xmlns="http://www.w3.org/2000/svg"><g id="Page-1" fill="none" fill-rule="evenodd"><g id="009---Pay-Bill" fill-rule="nonzero"><path id="Shape" d="m16 44.16-.17-.16-3.16 3-3.17-3-3.17 3-3.16-3-3.17 3v-45c.0032948-1.10320187.89679813-1.9967052 2-2h36c1.1032019.0032948 1.9967052.89679813 2 2v28z" fill="#f0c419"/><rect id="Rectangle-path" fill="#e64c3c" height="28" rx="4" width="42" x="16" y="30"/><path id="Shape" d="m29 47h29v6h-42v-6h6z" fill="#2c3e50"/><circle id="Oval" cx="48" cy="36" fill="#2fa8cc" r="2"/><circle id="Oval" cx="52" cy="36" fill="#f0c419" r="2"/><path id="Shape" d="m22 39h-1c-.5522847 0-1-.4477153-1-1s.4477153-1 1-1h1c.5522847 0 1 .4477153 1 1s-.4477153 1-1 1z" fill="#35495e"/><path id="Shape" d="m29 39h-3c-.5522847 0-1-.4477153-1-1s.4477153-1 1-1h3c.5522847 0 1 .4477153 1 1s-.4477153 1-1 1z" fill="#35495e"/><path id="Shape" d="m32 43h-11c-.5522847 0-1-.4477153-1-1s.4477153-1 1-1h11c.5522847 0 1 .4477153 1 1s-.4477153 1-1 1z" fill="#35495e"/><circle id="Oval" cx="4" cy="4" fill="#f29c1f" r="1"/><circle id="Oval" cx="8" cy="4" fill="#f29c1f" r="1"/><circle id="Oval" cx="12" cy="4" fill="#f29c1f" r="1"/><circle id="Oval" cx="16" cy="4" fill="#f29c1f" r="1"/><circle id="Oval" cx="20" cy="4" fill="#f29c1f" r="1"/><circle id="Oval" cx="24" cy="4" fill="#f29c1f" r="1"/><circle id="Oval" cx="28" cy="4" fill="#f29c1f" r="1"/><circle id="Oval" cx="32" cy="4" fill="#f29c1f" r="1"/><circle id="Oval" cx="36" cy="4" fill="#f29c1f" r="1"/><g fill="#e57e25"><path id="Shape" d="m25 10h-11c-.5522847 0-1 .4477153-1 1s.4477153 1 1 1h11c.5522847 0 1-.4477153 1-1s-.4477153-1-1-1z"/><path id="Shape" d="m30 12h6c.5522847 0 1-.4477153 1-1s-.4477153-1-1-1h-6c-.5522847 0-1 .4477153-1 1s.4477153 1 1 1z"/><path id="Shape" d="m25 15h-11c-.5522847 0-1 .4477153-1 1s.4477153 1 1 1h11c.5522847 0 1-.4477153 1-1s-.4477153-1-1-1z"/><path id="Shape" d="m36 15h-6c-.5522847 0-1 .4477153-1 1s.4477153 1 1 1h6c.5522847 0 1-.4477153 1-1s-.4477153-1-1-1z"/><path id="Shape" d="m6 20h-2c-.55228475 0-1 .4477153-1 1s.44771525 1 1 1h2c.55228475 0 1-.4477153 1-1s-.44771525-1-1-1z"/><path id="Shape" d="m25 20h-14c-.5522847 0-1 .4477153-1 1s.4477153 1 1 1h14c.5522847 0 1-.4477153 1-1s-.4477153-1-1-1z"/><path id="Shape" d="m36 20h-6c-.5522847 0-1 .4477153-1 1s.4477153 1 1 1h6c.5522847 0 1-.4477153 1-1s-.4477153-1-1-1z"/><path id="Shape" d="m6 25h-2c-.55228475 0-1 .4477153-1 1s.44771525 1 1 1h2c.55228475 0 1-.4477153 1-1s-.44771525-1-1-1z"/><path id="Shape" d="m25 25h-14c-.5522847 0-1 .4477153-1 1s.4477153 1 1 1h14c.5522847 0 1-.4477153 1-1s-.4477153-1-1-1z"/><path id="Shape" d="m6 30h-2c-.55228475 0-1 .4477153-1 1s.44771525 1 1 1h2c.55228475 0 1-.4477153 1-1s-.44771525-1-1-1z"/><path id="Shape" d="m13 30h-2c-.5522847 0-1 .4477153-1 1s.4477153 1 1 1h2c.5522847 0 1-.4477153 1-1s-.4477153-1-1-1z"/><path id="Shape" d="m6 35h-2c-.55228475 0-1 .4477153-1 1s.44771525 1 1 1h2c.55228475 0 1-.4477153 1-1s-.44771525-1-1-1z"/><path id="Shape" d="m12 35h-1c-.5522847 0-1 .4477153-1 1s.4477153 1 1 1h1c.5522847 0 1-.4477153 1-1s-.4477153-1-1-1z"/><path id="Shape" d="m36 25h-6c-.5522847 0-1 .4477153-1 1s.4477153 1 1 1h6c.5522847 0 1-.4477153 1-1s-.4477153-1-1-1z"/></g><path id="Shape" d="m6 11c-.49218064-.002694-.90922007-.3631297-.98317375-.8497301-.07395369-.48660031.21717027-.95466294.68632704-1.10346134.46915678-.1487984.97683129.06591623 1.19684671.50619144.16076952.31957407.47981741.5291032.83696143.5496597.35714402.0205566.6981255-.15098246.8945-.44999998.19637451-.29901752.21830809-.68008565.05753857-.99965972-.34970676-.69286571-.9555248-1.22228395-1.689-1.476v-.177c0-.55228475-.44771525-1-1-1s-1 .44771525-1 1v.184c-1.37654748.48485233-2.2026937 1.89184415-1.95538732 3.330178.24730637 1.4383339 1.49595006 2.4885874 2.95538732 2.485822.49282236.0002297.91200252.3594728.98767493.8464508.07567241.4869781-.21472692.9564841-.68424072 1.1062529-.46951381.1497689-.97814254-.0648573-1.19843421-.5057037-.24714743-.4940187-.84798129-.6941474-1.342-.447s-.69414743.8479813-.447 1.342c.34750593.6937785.9515115 1.2249734 1.684 1.481v.177c.00000002.5522847.44771526 1 1 1s.99999998-.4477153 1-1v-.184c1.37654748-.4848523 2.2026937-1.8918441 1.95538732-3.330178-.24730637-1.4383339-1.49595006-2.4885874-2.95538732-2.485822z" fill="#35495e"/></g></g></svg>