<?xml version="1.0" encoding="utf-8"?>
<!-- Generator: Adobe Illustrator 23.0.3, SVG Export Plug-In . SVG Version: 6.00 Build 0)  -->
<svg version="1.1" id="bold" xmlns="http://www.w3.org/2000/svg" xmlns:xlink="http://www.w3.org/1999/xlink" x="0px" y="0px"
	 viewBox="0 0 512 512" style="enable-background:new 0 0 512 512;" xml:space="preserve">
<style type="text/css">
	.st0{fill:#FFD200;}
	.st1{fill:#FF0000;}
</style>
<path class="st0" d="M302.4,8.1H64.8C33.5,8.1,8.1,33.5,8.1,64.9v320.2c0,31.4,25.4,56.9,56.7,56.9H166c2-8.3,5.7-16,10.6-23.4
	l107.9-175.1c13.9-23.8,40.7-39,69.6-39c1.6,0,3.4,0,5.2,0.3V65.1C359.3,33.5,333.8,8.1,302.4,8.1z M90.8,90.8h82.7
	c11.3,0,20.6,9.3,20.6,20.6s-9.3,20.6-20.6,20.6H90.8c-11.3,0-20.6-9.3-20.6-20.6S79.3,90.8,90.8,90.8L90.8,90.8z M194.1,297.3H90.8
	c-11.3,0-20.6-9.3-20.6-20.6c0-11.3,9.3-20.6,20.6-20.6h103.3c11.3,0,20.6,9.3,20.6,20.6C214.7,288.1,205.4,297.3,194.1,297.3z
	 M276.6,214.7H90.8c-11.3,0-20.6-9.3-20.6-20.6s9.3-20.6,20.6-20.6h186c11.3,0,20.6,9.3,20.6,20.6
	C297.2,205.4,287.9,214.7,276.6,214.7z"/>
<path class="st1" d="M497.8,442.4l-109-177.1c-7.2-12.2-20.5-19.6-34.7-19.6c-14.2,0-27.5,7.6-34.5,19.3L210.8,441.7
	c-4.3,6.3-6.4,13.9-6.4,21.8c0,22.2,18.2,40.4,40.5,40.4h218.5c22.4,0,40.5-18.1,40.5-40.3C503.9,455.6,501.6,448,497.8,442.4
	L497.8,442.4z M354.1,462.6c-11.5,0-20.6-9.2-20.6-20.6s9.2-20.6,20.6-20.6s20.6,9.2,20.6,20.6C374.8,453.3,365.4,462.6,354.1,462.6
	z M374.8,390.3c0,11.5-9.2,20.6-20.6,20.6s-20.6-9.3-20.6-20.6V349c0-11.5,9.2-20.6,20.6-20.6s20.6,9.3,20.6,20.6V390.3z"/>
</svg>
