<svg height="512" viewBox="0 0 512 512" width="512" xmlns="http://www.w3.org/2000/svg"><g><g><g><path d="m384 272.7v223.3h-368v-368h288.3" fill="#a0815c"/><g fill="#ff9811"><path d="m256 288-56-32-56 32v-160h112z"/><path d="m240 400h112v64h-112z"/></g></g><path d="m496 16h-192v256h144l48-48z" fill="#ffeb99"/><path d="m448 272v-48h48" fill="#ffda44"/></g><g><path d="m232 400v64a8 8 0 0 0 8 8h112a8 8 0 0 0 8-8v-64a8 8 0 0 0 -8-8h-112a8 8 0 0 0 -8 8zm16 8h96v48h-96z"/><path d="m496 8h-192a8 8 0 0 0 -8 8v104h-280a8 8 0 0 0 -8 8v368a8 8 0 0 0 8 8h368a8 8 0 0 0 8-8v-216h56a8.008 8.008 0 0 0 5.66-2.34l48-48a8.008 8.008 0 0 0 2.34-5.66v-208a8 8 0 0 0 -8-8zm-344 128h96v138.21l-44.03-25.16a8.03 8.03 0 0 0 -7.94 0l-44.03 25.16zm224 352h-352v-352h112v152a8 8 0 0 0 11.97 6.95l52.03-29.74 52.03 29.74a8 8 0 0 0 11.97-6.95v-152h32v136a8 8 0 0 0 8 8h72zm80-235.31v-20.69h20.69zm32-36.69h-40a8 8 0 0 0 -8 8v40h-128v-240h176z"/><path d="m336 56h128a8 8 0 0 0 0-16h-128a8 8 0 0 0 0 16z"/><path d="m336 80h128a8 8 0 0 0 0-16h-128a8 8 0 0 0 0 16z"/><path d="m464 104a8 8 0 0 0 0-16h-128a8 8 0 0 0 0 16z"/><path d="m451.973 184.8a8 8 0 1 0 -8.686-13.438 126.935 126.935 0 0 1 -29.175 13.95c-4.108 1.354-6.819 1.683-8.056.973-1.141-.652-2.339-2.951-3.5-5.175a35.5 35.5 0 0 0 -5.594-8.49c-8.09-8.5-21.426-9.513-36.589-2.784-6.793 3.014-16.433 8.133-21.7 17.759-5.314 9.709-4.395 24.494 6.355 31.451a8 8 0 0 0 8.694-13.432c-2.487-1.609-2.989-6.729-1.014-10.338 2.237-4.087 6.734-7.523 14.155-10.815 6.254-2.776 14.852-4.653 18.51-.81a23.187 23.187 0 0 1 3 4.855c2.018 3.869 4.527 8.684 9.741 11.668 7.136 4.081 14.976 2.321 21.009.336a143.054 143.054 0 0 0 32.85-15.71z"/></g></g></svg>