<svg enable-background="new 0 0 256 256" height="512" viewBox="0 0 256 256" width="512" xmlns="http://www.w3.org/2000/svg"><path d="m159.785 248.797v-5.942c0-2.586 2.116-4.703 4.703-4.703-2.586 0-4.703-2.116-4.703-4.703v-5.942c0-2.586 2.116-4.703 4.703-4.703-2.586 0-4.703-2.116-4.703-4.702v-5.942c0-2.587 2.116-4.703 4.703-4.703-2.586 0-4.703-2.116-4.703-4.703v-5.942c0-2.586 2.116-4.703 4.703-4.703h9.93c-2.586 0-4.702-2.116-4.702-4.702v-5.942c0-2.587 2.116-4.703 4.703-4.703h34.634c-.003-3.347-.007-6.744-.01-10.179l-36.627 10.013c-2.495.682-5.094-.801-5.776-3.296l-1.567-5.732c-.682-2.495.801-5.094 3.296-5.776l40.658-11.116c-.037-37.079-.076-76.175-.102-102.28h-121.075-18c-.778 0-1.49-.44-1.838-1.136-.403-.805-.222-1.768.421-2.399 2.975-2.921 4.768-7.142 4.768-11.616 0-8.408-6.821-15.151-15.151-15.151-8.368 0-15.151 6.783-15.151 15.151v213.176c0 3.908 3.168 7.076 7.076 7.076h114.513c-2.587.003-4.703-2.113-4.703-4.7z" fill="#dae6f1"/><path d="m162.817 65h-68.634c-4.501 0-8.183 3.682-8.183 8.183v23.634c0 4.501 3.682 8.183 8.183 8.183h68.634c4.501 0 8.183-3.682 8.183-8.183v-23.634c0-4.501-3.682-8.183-8.183-8.183z" fill="#fc657e"/><path d="m224.713 18.042v-.022h-.429c-.001 0-.003 0-.004 0s-.003 0-.004 0l-166.226.077c8.368 0 15.151 6.783 15.151 15.151 0 4.474-1.793 8.695-4.768 11.617-.643.631-.823 1.593-.421 2.399.348.696 1.059 1.136 1.838 1.136h154.863v-.1c8.166-.231 14.718-6.908 14.718-15.129 0-8.222-6.552-14.898-14.718-15.129z" fill="#edf4fc"/><g fill="#f5c84c"><path d="m219.484 192.112h-54.996c-2.586 0-4.703 2.116-4.703 4.703v5.942c0 2.586 2.116 4.703 4.703 4.703h54.996c2.586 0 4.703-2.116 4.703-4.703v-5.942c0-2.587-2.116-4.703-4.703-4.703z"/><path d="m219.484 207.459h-54.996c-2.586 0-4.703 2.116-4.703 4.703v5.942c0 2.586 2.116 4.703 4.703 4.703h54.996c2.586 0 4.703-2.116 4.703-4.703v-5.942c0-2.587-2.116-4.703-4.703-4.703z"/><path d="m219.484 222.806h-54.996c-2.586 0-4.703 2.116-4.703 4.703v5.942c0 2.586 2.116 4.703 4.703 4.703h54.996c2.586 0 4.703-2.116 4.703-4.703v-5.942c0-2.587-2.116-4.703-4.703-4.703z"/><path d="m219.484 238.153h-54.996c-2.586 0-4.703 2.116-4.703 4.703v5.942c0 2.586 2.116 4.703 4.703 4.703h54.996c2.586 0 4.703-2.116 4.703-4.703v-5.942c0-2.587-2.116-4.703-4.703-4.703z"/><path d="m229.415 176.765h-54.996c-2.586 0-4.703 2.116-4.703 4.703v5.942c0 2.586 2.116 4.703 4.703 4.703h54.996c2.586 0 4.703-2.116 4.703-4.703v-5.942c-.001-2.587-2.117-4.703-4.703-4.703z"/><path d="m221.418 147.291-53.05 14.503c-2.495.682-3.978 3.281-3.296 5.776l1.567 5.732c.682 2.495 3.281 3.978 5.776 3.296l53.05-14.503c2.495-.682 3.978-3.281 3.296-5.776l-1.567-5.732c-.682-2.495-3.281-3.978-5.776-3.296z"/></g><path d="m164.488 256h-114.513c-5.28 0-9.576-4.296-9.576-9.576v-213.176c0-9.733 7.918-17.651 17.651-17.651s17.651 7.918 17.651 17.651c0 4.716-1.738 9.269-4.798 12.651h138.021c1.38 0 2.499 1.118 2.5 2.497l.102 102.28c.001 1.128-.753 2.117-1.841 2.414l-40.658 11.115c-.562.154-1.034.521-1.327 1.036-.293.514-.37 1.107-.216 1.67l1.567 5.731c.154.562.521 1.034 1.036 1.327.514.292 1.106.369 1.669.217l36.627-10.014c.751-.205 1.556-.05 2.175.423s.983 1.207.984 1.985l.01 10.18c0 .664-.262 1.301-.731 1.77-.469.47-1.105.733-1.769.733h-34.634c-1.214 0-2.203.988-2.203 2.202v5.942c0 1.214.988 2.202 2.202 2.202 1.381 0 2.5 1.119 2.5 2.5s-1.119 2.5-2.5 2.5h-9.93c-1.214 0-2.203.988-2.203 2.203v5.941c0 1.215.988 2.203 2.203 2.203 1.381 0 2.5 1.119 2.5 2.5s-1.119 2.5-2.5 2.5c-1.214 0-2.203.988-2.203 2.202v5.942c0 1.214.988 2.202 2.203 2.202 1.381 0 2.5 1.119 2.5 2.5s-1.119 2.5-2.5 2.5c-1.214 0-2.203.988-2.203 2.202v5.942c0 1.214.988 2.202 2.203 2.202 1.381 0 2.5 1.119 2.5 2.5s-1.119 2.5-2.5 2.5c-1.214 0-2.203.988-2.203 2.203v5.941c0 1.215.988 2.203 2.203 2.203 1.381 0 2.5 1.119 2.5 2.5s-1.118 2.505-2.499 2.505zm-106.438-235.403c-6.976 0-12.651 5.676-12.651 12.651v213.176c0 2.523 2.053 4.576 4.576 4.576h107.654c-.223-.694-.344-1.436-.344-2.203v-5.941c0-1.796.66-3.44 1.751-4.703-1.091-1.263-1.751-2.906-1.751-4.702v-5.942c0-1.795.661-3.439 1.751-4.702-1.09-1.263-1.751-2.907-1.751-4.702v-5.942c0-1.796.66-3.439 1.751-4.702-1.091-1.263-1.751-2.907-1.751-4.703v-5.941c0-3.972 3.231-7.203 7.203-7.203h3.072c-.224-.694-.344-1.435-.344-2.202v-5.942c0-1.073.236-2.093.659-3.009-.089-.046-.178-.094-.266-.145-1.674-.955-2.875-2.501-3.381-4.352l-1.567-5.731c-.506-1.851-.258-3.792.697-5.467.956-1.674 2.501-2.875 4.352-3.38l38.815-10.612-.098-97.872h-136.577c-1.737 0-3.298-.965-4.074-2.519-.884-1.769-.521-3.898.904-5.299 2.556-2.51 4.021-6.094 4.021-9.834.001-6.978-5.675-12.653-12.651-12.653zm132.382 153.668h16.118l-.004-4.405z"/><path d="m26.622 188.911h-2.07v-2.07c0-1.549-1.256-2.805-2.805-2.805s-2.805 1.256-2.805 2.805v2.07h-2.069c-1.549 0-2.805 1.256-2.805 2.805s1.256 2.805 2.805 2.805h2.069v2.07c0 1.549 1.256 2.805 2.805 2.805s2.805-1.256 2.805-2.805v-2.07h2.07c1.549 0 2.805-1.256 2.805-2.805-.001-1.549-1.256-2.805-2.805-2.805z" fill="#3caadc"/><path d="m45.594.05c-1.349.255-2.255 1.464-2.255 2.749 0 1.28.901 2.493 2.255 2.749 1.864.347 3.354-1.093 3.354-2.749 0-1.73-1.554-3.084-3.354-2.749z" fill="#ef4460"/><path d="m222.594 75.856c-1.349.255-2.255 1.464-2.255 2.749 0 1.501 1.207 2.805 2.805 2.805 1.526 0 2.805-1.258 2.805-2.805-.001-1.677-1.506-3.094-3.355-2.749z" fill="#87d147"/><path d="m29.694 213.856c-1.849-.334-3.355 1.047-3.355 2.749 0 1.479 1.184 2.805 2.805 2.805 1.517 0 2.805-1.257 2.805-2.805-.001-1.335-.96-2.505-2.255-2.749z" fill="#87d147"/><path d="m240.257 104.927c-3.995-.744-7.144-3.829-7.904-7.743-.038-.197-.313-.197-.351 0-.76 3.914-3.908 6.999-7.904 7.743-.201.037-.201.306 0 .344 3.995.744 7.144 3.829 7.904 7.743.038.197.313.197.351 0 .76-3.914 3.908-6.999 7.904-7.743.201-.038.201-.307 0-.344z" fill="#f5c84c"/><path d="m31.314 21.992c-2.486-.463-4.446-2.383-4.918-4.818-.024-.122-.194-.122-.218 0-.473 2.436-2.432 4.355-4.919 4.818-.125.023-.125.191 0 .214 2.486.463 4.446 2.383 4.919 4.818.024.122.194.122.218 0 .473-2.436 2.432-4.355 4.918-4.818.125-.024.125-.191 0-.214z" fill="#f5c84c"/><path d="m224.713 50.899h-154.863c-1.737 0-3.298-.965-4.074-2.519-.884-1.769-.521-3.898.904-5.299 2.556-2.51 4.021-6.094 4.021-9.834 0-6.976-5.675-12.651-12.651-12.651-1.38 0-2.5-1.119-2.5-2.499 0-1.381 1.118-2.5 2.499-2.501l166.664-.077c.147 0 .292.013.432.037 9.442.453 16.786 8.122 16.786 17.614 0 9.374-7.164 16.971-16.438 17.594-.245.088-.507.135-.78.135zm-153.81-5h153.131c.194-.059.397-.093.607-.099 6.891-.195 12.289-5.743 12.289-12.63 0-6.888-5.398-12.436-12.289-12.63-.09-.003-.178-.01-.265-.021h-.093l-153.941.072c3.304 3.21 5.36 7.698 5.36 12.657 0 4.716-1.738 9.269-4.799 12.651z"/><path d="m114.695 72.918h-15.373c-.552 0-1 .447-1 1v2.327c0 .553.448 1 1 1h5.256v18.837c0 .553.448 1 1 1h2.86c.552 0 1-.447 1-1v-18.837h5.257c.552 0 1-.447 1-1v-2.327c0-.553-.447-1-1-1z"/><path d="m136.381 95.526-8.174-21.755c-.146-.391-.52-.648-.936-.648h-3.238c-.416 0-.789.258-.936.647l-8.207 21.755c-.116.307-.074.651.113.921.187.271.494.432.822.432h3.082c.421 0 .797-.264.94-.66l1.616-4.464h8.342l1.616 4.465c.144.396.52.659.94.659h3.082c.328 0 .635-.161.822-.431.189-.27.231-.614.116-.921zm-8.116-8.005h-5.259l2.629-7.257z"/><path d="m156.933 95.549-6.648-10.541 6.466-10.568c.189-.309.196-.694.02-1.011-.177-.315-.511-.511-.873-.511h-3.301c-.354 0-.681.187-.861.491l-4.26 7.205-4.565-7.23c-.184-.29-.502-.466-.846-.466h-3.427c-.365 0-.7.198-.876.518s-.164.709.031 1.018l6.556 10.357-6.443 10.758c-.185.309-.189.693-.012 1.007.178.313.51.507.87.507h3.302c.357 0 .688-.19.866-.5l4.236-7.34 4.68 7.376c.183.289.502.464.844.464h3.395c.364 0 .7-.198.875-.517.177-.32.165-.71-.029-1.017z"/><path d="m162.817 107.5h-68.634c-5.891 0-10.683-4.793-10.683-10.684v-23.633c0-5.891 4.792-10.683 10.683-10.683h68.634c5.891 0 10.683 4.792 10.683 10.683v23.634c0 5.89-4.792 10.683-10.683 10.683zm-68.634-40c-3.134 0-5.683 2.549-5.683 5.683v23.634c0 3.134 2.549 5.684 5.683 5.684h68.634c3.134 0 5.683-2.55 5.683-5.684v-23.634c0-3.134-2.549-5.683-5.683-5.683z"/><path d="m219.484 209.959h-54.997c-3.972 0-7.203-3.231-7.203-7.203v-5.941c0-3.972 3.231-7.203 7.203-7.203h54.997c3.972 0 7.203 3.231 7.203 7.203v5.941c0 3.972-3.231 7.203-7.203 7.203zm-54.996-15.348c-1.214 0-2.203.988-2.203 2.203v5.941c0 1.215.988 2.203 2.203 2.203h54.997c1.214 0 2.203-.988 2.203-2.203v-5.941c0-1.215-.988-2.203-2.203-2.203z"/><path d="m219.484 225.306h-54.997c-3.972 0-7.203-3.23-7.203-7.202v-5.942c0-3.972 3.231-7.202 7.203-7.202h54.997c3.972 0 7.203 3.23 7.203 7.202v5.942c0 3.971-3.231 7.202-7.203 7.202zm-54.996-15.347c-1.214 0-2.203.988-2.203 2.202v5.942c0 1.214.988 2.202 2.203 2.202h54.997c1.214 0 2.203-.988 2.203-2.202v-5.942c0-1.214-.988-2.202-2.203-2.202z"/><path d="m219.484 240.653h-54.997c-3.972 0-7.203-3.231-7.203-7.203v-5.941c0-3.972 3.231-7.203 7.203-7.203h54.997c3.972 0 7.203 3.231 7.203 7.203v5.941c0 3.972-3.231 7.203-7.203 7.203zm-54.996-15.347c-1.214 0-2.203.988-2.203 2.203v5.941c0 1.215.988 2.203 2.203 2.203h54.997c1.214 0 2.203-.988 2.203-2.203v-5.941c0-1.215-.988-2.203-2.203-2.203z"/><path d="m219.484 256h-54.997c-3.972 0-7.203-3.23-7.203-7.202v-5.942c0-3.972 3.231-7.202 7.203-7.202h54.997c3.972 0 7.203 3.23 7.203 7.202v5.942c0 3.972-3.231 7.202-7.203 7.202zm-54.996-15.347c-1.214 0-2.203.988-2.203 2.202v5.942c0 1.214.988 2.202 2.203 2.202h54.997c1.214 0 2.203-.988 2.203-2.202v-5.942c0-1.214-.988-2.202-2.203-2.202z"/><path d="m229.415 194.611h-54.996c-3.972 0-7.203-3.23-7.203-7.202v-5.942c0-3.972 3.231-7.202 7.203-7.202h54.996c3.972 0 7.203 3.23 7.203 7.202v5.942c-.001 3.972-3.232 7.202-7.203 7.202zm-54.997-15.346c-1.214 0-2.203.988-2.203 2.202v5.942c0 1.214.988 2.202 2.203 2.202h54.996c1.214 0 2.203-.988 2.203-2.202v-5.942c0-1.214-.988-2.202-2.203-2.202z"/><path d="m171.178 179.266c-3.167 0-6.077-2.106-6.951-5.304l-1.567-5.731c-.506-1.851-.258-3.792.697-5.467.956-1.674 2.501-2.875 4.352-3.38l53.049-14.504s0 0 0-.001c3.828-1.049 7.799 1.219 8.847 5.05l1.567 5.731c1.047 3.83-1.217 7.799-5.048 8.847l-53.05 14.503c-.632.173-1.269.256-1.896.256zm50.899-29.564-53.049 14.504c-.562.154-1.034.521-1.327 1.036-.293.514-.37 1.107-.216 1.67l1.567 5.731c.319 1.171 1.534 1.862 2.706 1.544l53.049-14.503c1.171-.321 1.864-1.534 1.543-2.706l-1.567-5.731c-.321-1.172-1.533-1.861-2.706-1.545z"/><path d="m183.551 124.374h-112.888c-1.381 0-2.5-1.119-2.5-2.5s1.119-2.5 2.5-2.5h112.888c1.381 0 2.5 1.119 2.5 2.5s-1.119 2.5-2.5 2.5z"/><path d="m183.551 138.853h-112.888c-1.381 0-2.5-1.119-2.5-2.5s1.119-2.5 2.5-2.5h112.888c1.381 0 2.5 1.119 2.5 2.5s-1.119 2.5-2.5 2.5z"/><path d="m164.5 153.331h-93.837c-1.381 0-2.5-1.119-2.5-2.5s1.119-2.5 2.5-2.5h93.837c1.381 0 2.5 1.119 2.5 2.5s-1.119 2.5-2.5 2.5z"/><path d="m153.732 167.81h-83.069c-1.381 0-2.5-1.119-2.5-2.5s1.119-2.5 2.5-2.5h83.069c1.381 0 2.5 1.119 2.5 2.5s-1.119 2.5-2.5 2.5z"/><path d="m153.732 182.288h-83.069c-1.381 0-2.5-1.119-2.5-2.5s1.119-2.5 2.5-2.5h83.069c1.381 0 2.5 1.119 2.5 2.5s-1.119 2.5-2.5 2.5z"/><path d="m84.124 217.248h-12.759c-1.381 0-2.5-1.119-2.5-2.5s1.119-2.5 2.5-2.5h12.759c1.381 0 2.5 1.119 2.5 2.5s-1.119 2.5-2.5 2.5z"/><path d="m96.883 217.248h-3.753c-1.381 0-2.5-1.119-2.5-2.5s1.119-2.5 2.5-2.5h3.753c1.381 0 2.5 1.119 2.5 2.5s-1.119 2.5-2.5 2.5z"/><path d="m108.891 217.248h-3.752c-1.381 0-2.5-1.119-2.5-2.5s1.119-2.5 2.5-2.5h3.752c1.381 0 2.5 1.119 2.5 2.5s-1.12 2.5-2.5 2.5z"/><path d="m108.567 205.167c-.005 0-.011 0-.016 0l-37.696-.237c-1.381-.009-2.493-1.135-2.484-2.516s1.144-2.492 2.516-2.484l37.696.237c1.381.009 2.493 1.135 2.484 2.516-.009 1.375-1.127 2.484-2.5 2.484z"/><path d="m95.177 230.083c-.005 0-.011 0-.016 0l-24.463-.153c-1.381-.009-2.493-1.135-2.484-2.516.009-1.375 1.126-2.484 2.5-2.484h.016l24.463.153c1.381.009 2.493 1.135 2.484 2.516-.01 1.375-1.127 2.484-2.5 2.484z"/></svg>