<?xml version="1.0" encoding="utf-8"?>
<!-- Generator: Adobe Illustrator 17.1.0, SVG Export Plug-In . SVG Version: 6.00 Build 0)  -->
<!DOCTYPE svg PUBLIC "-//W3C//DTD SVG 1.1//EN" "http://www.w3.org/Graphics/SVG/1.1/DTD/svg11.dtd">
<svg version="1.1" id="Layer_1" xmlns="http://www.w3.org/2000/svg" xmlns:xlink="http://www.w3.org/1999/xlink" x="0px" y="0px"
	 viewBox="0 147 600 329" enable-background="new 0 147 600 329" xml:space="preserve">
<g>
	<path fill="none" stroke="#FFFFFF" stroke-width="2" stroke-linecap="round" stroke-linejoin="round" d="M298.9,287.2v67.1"/>
	<g transform="translate(9 39)">
		<defs>
			<filter id="Adobe_OpacityMaskFilter" filterUnits="userSpaceOnUse" x="254.7" y="238.6" width="25.6" height="86.3">
				<feColorMatrix  type="matrix" values="1 0 0 0 0  0 1 0 0 0  0 0 1 0 0  0 0 0 1 0"/>
			</filter>
		</defs>
		<mask maskUnits="userSpaceOnUse" x="254.7" y="238.6" width="25.6" height="86.3" id="b">
			<g filter="url(#Adobe_OpacityMaskFilter)">
				<path id="a" fill="#FFFFFF" d="M272.3,313.7c0,1.8-1.4,3.2-3.2,3.2h-3.2c-1.8,0-3.2-1.4-3.2-3.2v-63.9c0-1.8,1.4-3.2,3.2-3.2
					h3.2c1.8,0,3.2,1.4,3.2,3.2V313.7z"/>
			</g>
		</mask>
		<path mask="url(#b)" fill="#FFFFFF" d="M254.7,324.9h25.6v-86.3h-25.6V324.9z"/>
	</g>
	<g>
		<path fill="none" stroke="#FFFFFF" stroke-width="2" stroke-linecap="round" stroke-linejoin="round" d="M345.2,271.2
			c0-1.8-1.4-3.2-3.2-3.2h-79.9c-1.8,0-3.2,1.4-3.2,3.2v100.7c0,1.8,1.4,3.2,3.2,3.2H342c1.8,0,3.2-1.4,3.2-3.2V271.2z"/>
		<path fill="none" stroke="#FFFFFF" stroke-width="2" stroke-linecap="round" stroke-linejoin="round" d="M287.7,354.3h39.9
			c1.8,0,3.2-1.4,3.2-3.2v-4.8c0-1.8-1.4-3.2-3.2-3.2h-36.7c-1.8,0-3.2-1.4-3.2-3.2v-4.8c0-1.8,1.4-3.2,3.2-3.2h36.7
			c1.8,0,3.2-1.4,3.2-3.2V324c0-1.8-1.4-3.2-3.2-3.2h-36.7c-1.8,0-3.2-1.4-3.2-3.2v-4.8c0-1.8,1.4-3.2,3.2-3.2h36.7
			c1.8,0,3.2-1.4,3.2-3.2v-4.8c0-1.8-1.4-3.2-3.2-3.2h-36.7c-1.8,0-3.2-1.4-3.2-3.2v-4.8c0-1.8,1.4-3.2,3.2-3.2h39.9"/>
		<path fill="none" stroke="#FFFFFF" stroke-width="2" stroke-linecap="round" stroke-linejoin="round" stroke-dasharray="2,4" d="
			M351.6,319.2h57.5"/>
	</g>
	<g transform="translate(88 53)">
		<defs>
			<filter id="Adobe_OpacityMaskFilter_1_" filterUnits="userSpaceOnUse" x="302.6" y="247.9" width="28.9" height="36.7">
				<feColorMatrix  type="matrix" values="1 0 0 0 0  0 1 0 0 0  0 0 1 0 0  0 0 0 1 0"/>
			</filter>
		</defs>
		<mask maskUnits="userSpaceOnUse" x="302.6" y="247.9" width="28.9" height="36.7" id="d">
			<g filter="url(#Adobe_OpacityMaskFilter_1_)">
				<path id="c" fill="#FFFFFF" d="M312.4,276.6l-1.8-1.8l9.2-8.7l-9.2-8.7l1.8-1.8l11.2,10.5L312.4,276.6z"/>
			</g>
		</mask>
		<path mask="url(#d)" fill="#FFFFFF" d="M302.6,284.6h28.9v-36.7h-28.9V284.6z"/>
	</g>
</g>
<g>
	<path fill="#FFFFFF" d="M206.6,343.5c-14.7,0-26.8-12.1-26.8-26.8s12.1-26.8,26.8-26.8c14.7,0,26.8,12.1,26.8,26.8
		S221.3,343.5,206.6,343.5z M206.6,332.5c8.7,0,15.8-7.1,15.8-15.8c0-8.7-7.1-15.8-15.8-15.8c-8.7,0-15.8,7.1-15.8,15.8
		C190.8,325.4,197.9,332.5,206.6,332.5z M150.5,343.5c-14.7,0-26.8-12.1-26.8-26.8s12.1-26.8,26.8-26.8c14.7,0,26.8,12.1,26.8,26.8
		S165.2,343.5,150.5,343.5z M150.5,332.5c8.7,0,15.8-7.1,15.8-15.8c0-8.7-7.1-15.8-15.8-15.8s-15.8,7.1-15.8,15.8
		C134.7,325.4,141.8,332.5,150.5,332.5z M121.2,316.3c0,14.9-12.1,27.2-26.8,27.2s-26.8-12.1-26.8-27.2c0-14.9,10.8-26.4,26.8-26.4
		c5.9,0,11.4,1.2,15.8,4.4v-15.4c0-3,2.7-5.3,5.5-5.3c3,0,5.5,2.5,5.5,5.3C121.2,278.9,121.2,316.3,121.2,316.3z M94.4,332.5
		c8.7,0,15.8-7.1,15.8-15.8c0-8.7-7.1-15.8-15.8-15.8s-15.8,7.1-15.8,15.8C78.7,325.4,85.7,332.5,94.4,332.5z"/>
	<path fill="#FFFFFF" d="M38.3,343.5c-14.7,0-26.8-12.1-26.8-26.8s12.1-26.8,26.8-26.8s26.8,12.1,26.8,26.8S53.2,343.5,38.3,343.5z
		 M38.3,332.5c8.7,0,15.8-7.1,15.8-15.8c0-8.7-7.1-15.8-15.8-15.8s-15.8,7.1-15.8,15.8C22.6,325.4,29.6,332.5,38.3,332.5z"/>
</g>
<g>
	<path fill="#1FC0E7" d="M510,398c44.9,0,81.3-36.4,81.3-81.3c0-44.9-36.4-81.3-81.3-81.3s-81.3,36.4-81.3,81.3
		C428.7,361.6,465.1,398,510,398"/>
	<path fill="#FFFFFF" d="M468.3,316.7l13.9-13.9c0.5-0.5,0.7-1.1,0.7-1.7c0-1.4-1.1-2.5-2.5-2.5c-0.7,0-1.3,0.3-1.8,0.7l-13.8,13.9
		l-13.9-13.9c-0.5-0.5-1.1-0.7-1.8-0.7c-1.4,0-2.5,1.1-2.5,2.5c0,0.7,0.3,1.3,0.7,1.8l13.9,13.9l-13.8,13.9
		c-0.5,0.5-0.8,1.1-0.8,1.8c0,1.4,1.1,2.5,2.5,2.5c0.7,0,1.3-0.3,1.8-0.7l13.9-13.9l13.8,13.8c0.5,0.5,1.1,0.8,1.8,0.8
		c1.4,0,2.5-1.1,2.5-2.5c0-0.7-0.3-1.3-0.7-1.8L468.3,316.7L468.3,316.7z M550.6,316.7c0,2.5,2,4.5,4.5,4.5c2.5,0,4.5-2,4.5-4.5
		c0-2.5-2-4.5-4.5-4.5C552.7,312.1,550.7,314.2,550.6,316.7L550.6,316.7z M542.1,316.7c0-7.2,5.9-13.1,13.1-13.1
		c7.2,0,13.1,5.9,13.1,13.1c0,7.2-5.9,13.1-13.1,13.1C548,329.7,542.1,323.9,542.1,316.7L542.1,316.7z M537,316.7
		c0,10,8.2,18.2,18.2,18.2s18.2-8.2,18.2-18.2c0-10-8.2-18.2-18.2-18.2C545.1,298.4,537,306.6,537,316.7L537,316.7z M535.7,298.7
		h-0.8c-2.3,0-4.5,0.7-6.4,2.2c-0.3-1.1-1.3-2-2.4-2c-1.4,0-2.5,1.1-2.5,2.5l0,30.7c0,1.4,1.1,2.5,2.5,2.5c1.4,0,2.5-1.1,2.5-2.5
		v-18.9c0-6.3,0.6-8.8,6-9.5c0.5-0.1,1-0.1,1-0.1c1.5-0.1,2.5-1.1,2.5-2.4C538.1,299.9,537,298.7,535.7,298.7L535.7,298.7z
		 M488,313.7c0-0.1,0-0.1,0-0.2c1.4-5.7,6.6-9.9,12.7-9.9c6.2,0,11.4,4.3,12.8,10.1L488,313.7L488,313.7z M518.6,313.2
		c-1.1-5.1-3.8-9.2-8.1-11.9c-6.2-3.9-14.3-3.7-20.3,0.5c-4.9,3.5-7.7,9.1-7.7,15c0,1.5,0.2,2.9,0.5,4.4c1.8,7.2,8,12.7,15.5,13.6
		c2.2,0.3,4.3,0.1,6.5-0.4c1.9-0.5,3.7-1.2,5.4-2.3c1.8-1.1,3.2-2.6,4.7-4.4c0,0,0.1-0.1,0.1-0.1c1-1.2,0.8-3-0.3-3.8
		c-0.9-0.7-2.5-1-3.7,0.6c-0.3,0.4-0.6,0.8-0.9,1.1c-1,1.1-2.2,2.1-3.6,2.9c-1.8,1-3.9,1.5-6.1,1.5c-7.2-0.1-11.1-5.1-12.5-8.7
		c-0.2-0.7-0.4-1.4-0.6-2.1l0-0.4h25.9C517.2,318.6,519.1,316.1,518.6,313.2L518.6,313.2z"/>
</g>
</svg>
